<?xml version="1.0" standalone="no"?>
<!DOCTYPE svg PUBLIC "-//W3C//DTD SVG 20010904//EN"
 "http://www.w3.org/TR/2001/REC-SVG-20010904/DTD/svg10.dtd">
<svg version="1.0" xmlns="http://www.w3.org/2000/svg"
 width="879.000000pt" height="879.000000pt" viewBox="0 0 879.000000 879.000000"
 preserveAspectRatio="xMidYMid meet">
<metadata>
Created by potrace 1.14, written by Peter Selinger 2001-2017
</metadata>
<g transform="translate(0.000000,879.000000) scale(0.100000,-0.100000)"
fill="#000000" stroke="none">
<path d="M3279 8786 c-2 -2 -35 -7 -74 -10 -138 -12 -376 -52 -467 -80 -25 -8
-49 -12 -52 -9 -3 4 -6 1 -6 -6 0 -7 -4 -10 -8 -7 -4 2 -35 -4 -67 -15 -33
-11 -67 -22 -75 -24 -127 -30 -430 -169 -560 -256 -93 -62 -290 -249 -290
-275 0 -8 -4 -14 -9 -14 -11 0 -83 -112 -132 -205 -54 -104 -121 -289 -144
-400 -3 -11 -7 -31 -10 -45 -9 -44 -22 -114 -30 -170 -29 -193 -22 -571 15
-775 5 -33 13 -75 16 -94 3 -18 8 -43 10 -55 3 -11 7 -32 10 -46 3 -14 7 -33
10 -42 3 -9 7 -26 9 -38 9 -47 17 -61 33 -58 10 2 18 9 18 16 1 6 2 13 3 15 1
1 4 21 6 45 2 23 6 46 9 51 3 5 8 26 12 47 3 22 11 48 17 59 6 11 9 20 8 20
-5 0 12 60 19 70 4 6 11 21 15 35 4 14 20 50 35 81 16 32 27 59 24 62 -2 2 2
10 11 17 8 7 15 19 15 26 0 8 4 14 9 14 5 0 13 10 17 22 3 12 10 26 15 32 5 6
33 43 61 81 76 102 133 163 233 251 86 75 96 83 169 131 39 27 73 50 76 53 7
7 48 31 99 57 24 12 48 26 55 31 45 35 436 182 484 182 11 0 24 5 27 10 4 6
11 8 16 5 5 -4 15 -3 22 2 6 4 19 8 27 8 8 1 29 4 45 8 57 14 121 24 191 32
21 2 64 7 94 10 59 7 332 7 415 0 28 -2 82 -6 120 -10 39 -3 81 -7 95 -10 111
-17 115 -18 200 -34 80 -16 263 -66 349 -96 80 -27 117 -30 170 -15 95 27 157
115 187 265 6 30 5 196 -1 225 -3 14 -10 43 -15 65 -14 68 -18 79 -36 120 -10
22 -18 43 -18 46 -3 29 -89 158 -156 235 -37 42 -120 113 -172 147 -111 71
-301 143 -433 163 -16 3 -41 7 -55 10 -43 10 -74 15 -105 19 -16 2 -30 4 -30
5 0 8 -518 23 -526 16z"/>
<path d="M1004 7767 c-40 -46 -74 -91 -133 -172 -27 -39 -55 -75 -61 -82 -5
-7 -10 -17 -10 -22 0 -5 -6 -16 -13 -23 -16 -16 -62 -90 -105 -168 -77 -140
-169 -330 -213 -440 -65 -165 -153 -459 -174 -579 -3 -19 -7 -37 -9 -40 -2 -3
-7 -28 -10 -56 -4 -27 -9 -57 -11 -65 -4 -15 -14 -89 -21 -145 -27 -241 -27
-567 1 -810 21 -185 131 -628 175 -707 6 -10 10 -23 10 -29 0 -6 6 -25 14 -42
8 -18 29 -66 46 -107 112 -262 327 -615 486 -796 11 -12 35 -40 54 -64 107
-130 350 -358 504 -473 28 -21 59 -44 68 -52 10 -8 37 -27 60 -42 24 -15 46
-32 50 -38 4 -5 8 -6 8 -1 0 5 10 0 22 -11 13 -11 46 -33 73 -49 28 -16 58
-33 67 -39 54 -33 292 -155 302 -155 3 0 34 -13 68 -29 83 -37 319 -122 358
-128 8 -1 47 -11 85 -23 39 -11 81 -23 95 -25 14 -2 48 -9 75 -15 28 -6 65
-13 84 -16 18 -3 43 -8 55 -10 40 -9 61 -13 116 -18 30 -4 66 -8 80 -11 113
-20 591 -21 700 -1 14 3 48 8 75 11 68 8 116 14 145 20 14 3 40 8 59 11 18 3
41 7 50 10 63 15 150 35 171 39 14 3 34 9 45 12 11 4 22 7 25 8 44 8 234 90
295 128 52 32 135 100 181 148 71 76 124 145 117 153 -4 3 -2 6 4 6 12 0 96
164 96 186 0 8 3 14 7 14 4 0 7 6 8 13 1 6 12 57 25 112 39 163 32 376 -15
468 -39 78 -130 150 -206 163 -14 3 -146 7 -296 9 -149 2 -289 6 -311 9 -22 2
-70 7 -107 10 -37 4 -77 9 -89 11 -13 3 -41 7 -64 10 -105 15 -278 48 -370 71
-11 3 -30 7 -42 10 -12 2 -34 9 -48 14 -14 5 -25 7 -25 5 0 -2 -12 0 -27 6
-16 6 -36 12 -45 14 -29 6 -289 94 -353 120 -240 96 -462 205 -673 334 -51 31
-102 61 -112 67 -11 6 -28 18 -38 27 -10 10 -23 17 -29 17 -6 0 -13 4 -15 8
-1 4 -32 28 -68 52 -36 25 -67 47 -70 50 -3 3 -23 19 -45 35 -186 139 -537
470 -518 489 4 3 1 6 -5 6 -6 0 -31 27 -57 59 -25 33 -51 66 -58 73 -6 8 -16
21 -22 30 -5 9 -40 61 -76 115 -93 138 -191 322 -249 463 -12 30 -28 69 -35
85 -7 17 -26 73 -43 125 -26 80 -38 120 -58 195 -9 31 -36 153 -39 173 -4 30
-25 160 -31 192 -15 92 -22 419 -11 555 3 33 6 60 7 60 0 0 3 23 5 50 4 62 14
135 20 155 2 8 6 29 9 45 13 78 17 96 26 119 5 15 7 26 5 26 -2 0 0 12 5 26
14 36 20 94 10 94 -4 0 -21 -15 -36 -33z"/>
<path d="M4987 6523 c-2 -2 -28 -5 -58 -8 -62 -4 -143 -14 -179 -21 -14 -2
-41 -7 -60 -9 -29 -4 -122 -23 -250 -50 -36 -8 -221 -64 -245 -75 -11 -4 -35
-14 -52 -22 -18 -7 -33 -16 -33 -20 0 -5 -6 -8 -14 -8 -8 0 -50 -24 -93 -52
-140 -94 -271 -242 -334 -378 -47 -102 -65 -150 -75 -195 -2 -11 -10 -49 -18
-85 -7 -36 -12 -77 -12 -92 1 -16 -1 -28 -6 -28 -4 0 -3 -11 2 -25 6 -17 6
-25 -1 -25 -6 0 -7 -5 -3 -11 3 -6 8 -41 9 -78 4 -88 20 -146 57 -198 42 -61
65 -82 127 -111 54 -25 59 -25 330 -28 152 -1 296 -5 320 -9 25 -4 65 -8 90
-10 79 -7 145 -14 171 -19 14 -3 41 -7 60 -10 19 -3 46 -8 60 -11 14 -3 39 -7
55 -10 135 -19 556 -132 617 -166 10 -5 27 -9 37 -9 11 0 23 -4 26 -10 3 -5
13 -10 20 -10 8 0 39 -11 69 -25 30 -14 57 -25 61 -25 26 0 459 -216 550 -274
30 -20 60 -36 65 -36 6 0 10 -5 10 -11 0 -5 4 -8 9 -5 5 4 11 3 13 -1 3 -7
182 -131 227 -158 9 -5 23 -16 31 -23 8 -7 49 -38 90 -70 41 -31 92 -72 113
-91 21 -19 47 -42 59 -50 37 -27 303 -294 339 -340 19 -24 43 -53 54 -65 11
-12 25 -29 30 -38 6 -9 38 -54 73 -102 34 -47 62 -90 62 -94 0 -5 8 -17 18
-28 19 -22 38 -55 134 -242 37 -73 68 -139 68 -147 0 -8 4 -15 8 -15 5 0 9 -6
10 -12 0 -7 22 -69 47 -137 41 -110 107 -347 119 -427 8 -48 16 -98 21 -120 7
-33 19 -155 19 -206 1 -27 3 -48 6 -48 8 0 5 -304 -4 -318 -4 -7 -2 -12 4 -12
6 0 9 -4 5 -10 -3 -5 -8 -33 -10 -62 -8 -84 -15 -152 -20 -168 -2 -8 -7 -37
-10 -65 -10 -73 -12 -80 -40 -199 -14 -59 -23 -111 -20 -114 8 -9 49 34 112
117 32 42 61 78 66 79 4 2 7 10 7 18 0 8 3 14 8 14 4 0 12 9 17 19 6 11 40 66
76 123 36 57 76 123 90 148 13 25 28 48 32 51 5 3 8 8 7 10 -1 2 25 60 58 129
70 147 85 180 107 240 10 25 24 61 33 80 8 19 16 41 17 50 1 8 7 28 13 43 7
16 12 34 12 41 0 7 3 16 7 20 4 3 8 14 9 23 2 9 9 37 18 62 27 85 51 183 62
255 3 22 7 43 9 46 3 5 8 35 21 118 3 20 8 51 10 67 3 17 7 50 10 75 3 25 8
65 11 90 8 63 8 532 0 605 -17 154 -26 208 -58 375 -12 59 -46 195 -56 220 -3
8 -7 21 -9 27 -7 35 -51 162 -97 278 -47 121 -197 431 -214 444 -5 3 -19 27
-33 54 -13 26 -28 47 -32 47 -5 0 -8 5 -8 11 0 20 -171 258 -261 363 -165 193
-386 402 -550 521 -75 54 -288 195 -295 195 -4 0 -15 6 -23 14 -30 27 -312
165 -439 215 -172 68 -360 127 -462 147 -14 3 -41 9 -60 14 -44 12 -110 24
-180 34 -19 3 -51 8 -70 11 -43 7 -100 14 -165 22 -57 6 -553 12 -558 6z"/>
<path d="M7249 2628 c-1 -2 -3 -12 -4 -23 -2 -11 -5 -37 -8 -57 -3 -21 -8 -41
-10 -45 -3 -4 -8 -26 -11 -47 -6 -36 -27 -107 -43 -146 -3 -8 -7 -21 -9 -29
-7 -35 -92 -196 -149 -281 -94 -142 -227 -285 -350 -377 -17 -13 -48 -36 -70
-53 -22 -16 -45 -34 -52 -40 -7 -5 -15 -10 -17 -10 -3 0 -29 -15 -58 -33 -47
-30 -85 -50 -239 -128 -20 -10 -39 -16 -43 -12 -3 3 -6 1 -6 -5 0 -6 -15 -14
-32 -17 -18 -4 -37 -11 -43 -14 -24 -17 -258 -89 -348 -107 -10 -2 -26 -5 -35
-8 -9 -3 -33 -8 -52 -10 -19 -3 -53 -8 -75 -11 -22 -3 -53 -7 -70 -10 -65 -9
-204 -18 -290 -18 -100 0 -322 12 -357 18 -12 3 -49 7 -82 10 -33 4 -63 8 -67
10 -4 3 -24 7 -45 10 -33 5 -125 24 -196 41 -10 2 -26 6 -35 8 -10 2 -52 14
-93 27 -41 13 -77 24 -80 24 -3 1 -12 4 -20 7 -87 34 -147 36 -205 8 -51 -24
-64 -36 -96 -85 -51 -80 -64 -136 -63 -280 1 -123 6 -161 35 -254 50 -159 156
-309 304 -431 34 -27 135 -89 180 -109 17 -7 37 -17 45 -21 17 -8 153 -50 178
-55 9 -2 17 -4 17 -5 0 -1 11 -3 25 -6 14 -2 54 -10 90 -18 36 -8 92 -17 125
-21 33 -4 71 -9 85 -12 33 -7 483 -12 493 -6 5 3 30 7 55 9 87 6 147 14 222
28 41 8 89 17 105 20 65 12 80 16 134 32 31 10 59 17 63 16 4 -1 26 5 50 14
24 9 50 17 58 19 31 8 76 23 112 39 21 9 40 16 43 16 6 1 21 6 60 21 17 7 32
13 35 14 20 7 113 50 152 70 27 14 55 25 63 25 8 0 15 5 15 10 0 6 7 10 15 10
8 0 15 5 15 12 0 6 3 9 6 5 4 -3 31 12 60 34 30 22 54 37 54 34 0 -3 8 3 19
12 10 10 49 45 86 78 72 64 165 174 218 259 93 146 183 365 213 516 3 14 7 33
10 42 7 25 14 59 19 103 2 22 7 51 9 65 25 114 26 517 2 680 -2 14 -7 50 -10
80 -7 52 -29 168 -41 218 -3 12 -7 30 -9 40 -14 61 -20 78 -29 90 -8 11 -25
16 -28 10z"/>
</g>
</svg>
