<?xml version="1.0" standalone="no"?>
<!DOCTYPE svg PUBLIC "-//W3C//DTD SVG 20010904//EN"
 "http://www.w3.org/TR/2001/REC-SVG-20010904/DTD/svg10.dtd">
<svg version="1.0" xmlns="http://www.w3.org/2000/svg"
 width="528.000000pt" height="528.000000pt" viewBox="0 0 528.000000 528.000000"
 preserveAspectRatio="xMidYMid meet">
<metadata>
Created by potrace 1.14, written by Peter Selinger 2001-2017
</metadata>
<g transform="translate(0.000000,528.000000) scale(0.100000,-0.100000)"
fill="#000000" stroke="none">
<path d="M2288 5195 c-2 -2 -54 -6 -116 -10 -63 -3 -121 -8 -130 -10 -10 -1
-53 -6 -97 -9 -44 -4 -91 -9 -105 -11 -26 -4 -117 -16 -160 -20 -14 -1 -38 -5
-55 -8 -31 -7 -39 -8 -160 -27 -38 -6 -86 -15 -105 -20 -19 -5 -48 -11 -65
-14 -33 -6 -70 -13 -142 -30 -10 -2 -56 -14 -103 -26 -47 -12 -89 -23 -95 -24
-5 -2 -30 -9 -55 -16 -25 -7 -49 -15 -55 -16 -5 -1 -44 -14 -85 -29 -41 -14
-82 -27 -90 -29 -22 -6 -150 -55 -185 -70 -16 -8 -55 -24 -85 -37 -68 -28
-254 -123 -337 -173 -59 -35 -63 -39 -58 -69 2 -18 7 -54 10 -82 5 -48 9 -75
20 -140 3 -16 8 -46 10 -65 8 -54 15 -93 20 -120 3 -14 8 -38 10 -55 7 -51 15
-96 42 -225 14 -69 27 -134 29 -145 6 -32 12 -56 24 -110 6 -27 14 -59 16 -70
9 -46 14 -67 53 -215 23 -85 44 -166 47 -179 3 -13 9 -31 13 -40 5 -9 9 -19 9
-24 0 -4 10 -39 21 -77 12 -38 22 -72 22 -75 0 -2 7 -24 15 -47 9 -24 17 -50
19 -58 2 -8 20 -58 38 -110 19 -52 48 -131 63 -175 16 -44 31 -82 34 -85 3 -3
14 -27 24 -55 10 -27 32 -79 48 -115 17 -36 31 -69 32 -75 10 -47 298 -586
317 -593 5 -2 9 -8 9 -13 0 -10 69 -122 90 -146 5 -7 10 -16 10 -22 0 -5 3
-11 8 -13 4 -1 36 -43 71 -93 200 -279 450 -545 706 -751 33 -26 62 -51 65
-54 28 -30 308 -217 425 -282 104 -59 258 -137 266 -135 3 1 13 -4 23 -12 14
-12 30 -7 129 43 61 31 139 72 172 91 33 19 71 40 85 47 14 7 27 15 30 19 3 3
19 14 35 23 45 25 178 115 219 147 6 5 47 36 91 70 199 155 442 392 602 589
63 78 108 137 154 200 29 41 57 77 61 78 5 2 8 7 8 12 0 5 25 45 55 90 30 45
55 84 55 87 0 2 13 23 29 46 36 53 187 330 183 336 -2 2 0 7 5 10 5 3 20 29
33 56 76 162 100 216 100 223 0 5 -1026 9 -1076 3 -7 0 -31 -34 -54 -74 -126
-212 -297 -434 -475 -613 -101 -101 -264 -245 -325 -287 -14 -9 -34 -24 -46
-32 -20 -15 -26 -12 -99 40 -42 31 -83 61 -90 68 -7 6 -32 28 -56 47 -79 62
-379 368 -379 386 0 4 -6 12 -14 18 -8 6 -39 45 -70 86 -31 41 -60 80 -64 85
-18 23 -162 244 -162 249 0 3 -18 35 -40 70 -103 169 -283 576 -365 826 -21
63 -41 124 -46 135 -20 49 -126 440 -150 554 -18 86 -20 96 -29 129 -8 30 -6
34 18 43 15 6 38 13 52 15 14 3 39 9 55 14 28 9 227 54 285 65 14 3 36 7 50
10 14 3 41 8 60 11 19 2 58 9 85 14 67 12 123 21 165 25 32 4 73 9 155 20 139
19 397 33 590 34 55 0 109 1 120 1 11 1 25 1 30 1 33 1 312 -12 352 -16 26 -3
80 -8 118 -10 39 -3 86 -8 105 -10 19 -3 55 -7 79 -10 24 -2 55 -6 70 -9 14
-3 45 -8 68 -11 40 -4 235 -38 293 -50 29 -7 105 -23 138 -30 12 -3 46 -15 75
-26 107 -41 108 -42 103 -69 -9 -47 -16 -79 -42 -187 -32 -136 -34 -143 -40
-170 -2 -12 -9 -35 -15 -50 -6 -16 -10 -30 -10 -33 1 -7 -18 -80 -28 -110 -14
-39 -45 -144 -47 -157 -2 -9 31 -12 119 -11 67 0 127 -1 132 -2 6 -1 15 -2 20
-1 6 1 175 2 377 2 l368 1 11 41 c6 23 13 49 14 58 2 9 9 34 15 55 6 22 14 53
16 69 3 17 15 66 25 110 23 95 69 308 74 349 3 15 7 37 11 49 4 11 8 37 10 56
2 20 6 47 9 61 12 58 16 77 20 114 2 21 7 46 9 55 5 15 9 44 21 136 3 22 7 51
9 65 12 69 16 120 8 120 -4 0 -17 8 -28 18 -46 40 -322 177 -494 245 -168 66
-458 159 -540 174 -14 2 -43 9 -65 15 -22 5 -51 12 -65 15 -38 7 -43 9 -65 16
-11 3 -36 8 -55 11 -19 3 -71 13 -115 21 -44 9 -98 18 -120 21 -22 2 -47 7
-55 9 -8 2 -40 7 -70 11 -30 3 -66 8 -80 9 -145 18 -134 17 -280 29 -36 4 -92
9 -125 12 -62 7 -821 15 -827 9z"/>
</g>
</svg>
