<svg xmlns="http://www.w3.org/2000/svg" width="108.608" height="23.904" viewBox="0 0 108.608 23.904">
  <path fill="currentColor" d="M23.584-7.68q-.192,1.472-.464,3.664T22.72-.7a12.028,12.028,0,0,0-3.568.688,14.738,14.738,0,0,1-4.56.688A15.873,15.873,0,0,1,8.816-.3,12.432,12.432,0,0,1,4.64-2.88,10.29,10.29,0,0,1,2.16-6.544a11.6,11.6,0,0,1-.816-4.3A11.094,11.094,0,0,1,5.008-19.04q3.664-3.552,9.84-3.552a17.412,17.412,0,0,1,4.48.48,12.361,12.361,0,0,0,3.232.48q.064,1.536.192,3.456t.256,3.52q0,.1-.288.176a1.94,1.94,0,0,1-.512.08,1.272,1.272,0,0,1-.368-.064.421.421,0,0,1-.272-.192,8.381,8.381,0,0,0-2.384-4.368,6.067,6.067,0,0,0-4.464-2.032q-3.776,0-5.28,2.9a15.785,15.785,0,0,0-1.5,7.312A15.29,15.29,0,0,0,9.424-3.7,5.342,5.342,0,0,0,14.592-.864a6.18,6.18,0,0,0,4.8-2.048A13.509,13.509,0,0,0,22.176-7.68q.032-.128.272-.192a1.61,1.61,0,0,1,.4-.064,1.8,1.8,0,0,1,.448.08Q23.584-7.776,23.584-7.68ZM35.68-.544A1.532,1.532,0,0,1,35.6-.1q-.08.256-.176.256-.992,0-2.48-.1t-2.608-.1q-1.088,0-2.4.1t-2.272.1q-.1,0-.176-.256a1.532,1.532,0,0,1-.08-.448,1.468,1.468,0,0,1,.08-.416q.08-.256.176-.288a2.7,2.7,0,0,0,1.68-.64,3.035,3.035,0,0,0,.5-2.048V-17.152a2.175,2.175,0,0,0-.48-1.68,3.26,3.26,0,0,0-1.7-.528q-.1-.032-.176-.272a1.316,1.316,0,0,1-.08-.4,1.316,1.316,0,0,1,.08-.4q.08-.24.176-.24a26.887,26.887,0,0,0,3.376-1.04q1.84-.688,3.056-1.264a2.167,2.167,0,0,1,.32-.16,1.008,1.008,0,0,1,.384-.1.881.881,0,0,1,.56.144q.176.144.144.272-.064,1.12-.16,2.752t-.1,2.656V-3.936a3.041,3.041,0,0,0,.512,2.048,2.5,2.5,0,0,0,1.664.64q.1,0,.176.272A1.631,1.631,0,0,1,35.68-.544Zm17.28-.832a.526.526,0,0,0-.032.16q0,.064-.1.128A4.332,4.332,0,0,1,50.944.064,7.888,7.888,0,0,1,48.32.512,3.539,3.539,0,0,1,46.192-.08,2.745,2.745,0,0,1,45.12-1.664,4.476,4.476,0,0,1,43.248-.016a6.624,6.624,0,0,1-2.8.528A5.494,5.494,0,0,1,37.36-.32,2.82,2.82,0,0,1,36.1-2.848a3.5,3.5,0,0,1,2.08-3.072,27.156,27.156,0,0,1,6.976-2.272l.1-3.136a2.075,2.075,0,0,0-.288-1.312,1.239,1.239,0,0,0-.96-.32,2.928,2.928,0,0,0-1.232.256,1.15,1.15,0,0,0-.624,1.056A4.867,4.867,0,0,1,41.312-8.9a2.5,2.5,0,0,1-1.984.768,2.317,2.317,0,0,1-1.808-.688,2.368,2.368,0,0,1-.624-1.648q0-1.6,2.608-2.944a12.559,12.559,0,0,1,5.84-1.344q2.944,0,4.016,1.472a6.245,6.245,0,0,1,.976,4l-.16,5.568q-.064,1.12.32,1.456a1.145,1.145,0,0,0,.736.336,1.536,1.536,0,0,0,.544-.1,1.535,1.535,0,0,0,.448-.256q.128-.1.432.24A1,1,0,0,1,52.96-1.376ZM45.088-7.008a6.112,6.112,0,0,0-2.72,1.216,2.856,2.856,0,0,0-.832,2.208,1.841,1.841,0,0,0,.432,1.28,1.532,1.532,0,0,0,1.2.48,1.889,1.889,0,0,0,1.168-.4,2.137,2.137,0,0,0,.656-1.52Zm15.84-12.96a2.835,2.835,0,0,1-.864,2.08,2.8,2.8,0,0,1-2.048.864,2.8,2.8,0,0,1-2.048-.864,2.835,2.835,0,0,1-.864-2.08,2.8,2.8,0,0,1,.864-2.048,2.8,2.8,0,0,1,2.048-.864,2.8,2.8,0,0,1,2.048.864A2.8,2.8,0,0,1,60.928-19.968Zm2.4,19.424a1.532,1.532,0,0,1-.08.448q-.08.256-.176.256-.992,0-2.48-.08T57.984,0q-1.088,0-2.4.08T53.312.16q-.1,0-.176-.256a1.532,1.532,0,0,1-.08-.448,1.468,1.468,0,0,1,.08-.416q.08-.256.176-.288a2.7,2.7,0,0,0,1.68-.64,3.035,3.035,0,0,0,.5-2.048v-4.8a2.073,2.073,0,0,0-.5-1.664,3.426,3.426,0,0,0-1.68-.512q-.1-.032-.176-.272a1.316,1.316,0,0,1-.08-.4,1.468,1.468,0,0,1,.08-.416q.08-.256.176-.256a23.838,23.838,0,0,0,3.456-1.04q1.92-.72,2.976-1.232a2.167,2.167,0,0,1,.32-.16,1.008,1.008,0,0,1,.384-.1.964.964,0,0,1,.56.128.282.282,0,0,1,.144.288q-.064,1.12-.16,2.72T60.9-8.96v5.024a3.041,3.041,0,0,0,.512,2.048,2.5,2.5,0,0,0,1.664.64q.1,0,.176.272A1.631,1.631,0,0,1,63.328-.544Zm30.784,0a1.531,1.531,0,0,1-.08.448q-.08.256-.176.256-.992,0-2.288-.08T89.152,0q-1.12,0-2.224.08T84.864.16q-.1,0-.176-.24a1.464,1.464,0,0,1-.08-.464,1.468,1.468,0,0,1,.08-.416q.08-.256.176-.288.928-.128,1.152-.624a6.017,6.017,0,0,0,.224-2.064V-8.992a5.015,5.015,0,0,0-.384-2.256,1.482,1.482,0,0,0-1.44-.72,2.314,2.314,0,0,0-1.7.544A8.332,8.332,0,0,0,81.5-9.7v5.76a5.815,5.815,0,0,0,.24,2.048,1.264,1.264,0,0,0,1.136.64q.1,0,.176.272a1.63,1.63,0,0,1,.08.432,1.464,1.464,0,0,1-.08.464q-.08.24-.176.24A17.172,17.172,0,0,1,81.12.08,18.68,18.68,0,0,0,79.232,0q-1.12,0-2.368.08T74.656.16q-.1,0-.176-.256a1.532,1.532,0,0,1-.08-.448,1.468,1.468,0,0,1,.08-.416q.08-.256.176-.288a1.4,1.4,0,0,0,1.168-.624,5.64,5.64,0,0,0,.24-2.064V-8.992a3.939,3.939,0,0,0-.512-2.256,1.829,1.829,0,0,0-1.6-.72A1.91,1.91,0,0,0,72.4-11.3a7.959,7.959,0,0,0-1.1,1.952v5.408a5.476,5.476,0,0,0,.256,2.048,1.306,1.306,0,0,0,1.152.64q.1,0,.176.272a1.63,1.63,0,0,1,.08.432,1.531,1.531,0,0,1-.08.448Q72.8.16,72.7.16q-.992,0-2.1-.08T68.384,0q-1.088,0-2.4.08T63.712.16q-.1,0-.176-.24a1.464,1.464,0,0,1-.08-.464,1.468,1.468,0,0,1,.08-.416q.08-.256.176-.288a2.74,2.74,0,0,0,1.776-.624,3.745,3.745,0,0,0,.368-2.064V-8.992a2.989,2.989,0,0,0-.3-1.664,2.228,2.228,0,0,0-1.456-.512q-.1-.032-.176-.272a1.316,1.316,0,0,1-.08-.4,1.468,1.468,0,0,1,.08-.416q.08-.256.176-.256a26.3,26.3,0,0,0,2.912-.96q1.856-.7,2.88-1.184a2.168,2.168,0,0,1,.32-.16,1.007,1.007,0,0,1,.384-.1.964.964,0,0,1,.56.128.359.359,0,0,1,.176.288l-.16,3.072a5.527,5.527,0,0,1,2.24-2.48,5.648,5.648,0,0,1,2.688-.72,6.21,6.21,0,0,1,3.2.864,4.161,4.161,0,0,1,1.952,2.368,6.149,6.149,0,0,1,2.368-2.464,6.249,6.249,0,0,1,3.04-.768,4.687,4.687,0,0,1,3.712,1.488A4.966,4.966,0,0,1,91.68-9.76v5.824a3.711,3.711,0,0,0,.384,2.064,2.594,2.594,0,0,0,1.792.624q.1,0,.176.272A1.63,1.63,0,0,1,94.112-.544Zm15.84-7.872a.426.426,0,0,1-.16.352.7.7,0,0,1-.448.128h-8.832a4.366,4.366,0,0,0-.032.592v.688a5.981,5.981,0,0,0,.88,3.744A3.124,3.124,0,0,0,103.9-1.856a7.075,7.075,0,0,0,2.592-.576,4.667,4.667,0,0,0,2.08-1.44q.032-.064.192.048t.288.208a1.978,1.978,0,0,1,.272.336.629.629,0,0,1,.112.336.526.526,0,0,1-.016.128.283.283,0,0,1-.08.128,9.266,9.266,0,0,1-2.368,2.24A7.227,7.227,0,0,1,102.784.64a8.066,8.066,0,0,1-5.76-2.208,6.947,6.947,0,0,1-2.336-5.216A7.612,7.612,0,0,1,96.912-12.4a7.938,7.938,0,0,1,5.872-2.224,7.387,7.387,0,0,1,5.248,1.792A5.8,5.8,0,0,1,109.952-8.416Zm-5.312-2.4a2.955,2.955,0,0,0-.432-1.632,1.438,1.438,0,0,0-1.3-.672,1.662,1.662,0,0,0-1.568,1.024,7.719,7.719,0,0,0-.672,2.688l2.624-.064a1.87,1.87,0,0,0,1.024-.272Q104.64-9.984,104.64-10.816Z" transform="translate(-1.344 23.232)"/>
</svg>
