<svg xmlns="http://www.w3.org/2000/svg" width="818.95" height="157.114" viewBox="0 0 818.95 157.114"><path d="M87.267,34.514c20.58,0,40.408-5.522,52.957-15.059V-15.18C128.177-4.89,112.114,2.388,94.043,2.388c-25.349,0-44.675-16.565-44.675-46.431,0-30.118,19.326-46.431,44.675-46.431,18.071,0,34.133,7.278,46.18,17.569v-34.635c-12.549-9.537-32.377-15.059-52.957-15.059C43.847-122.6,6.2-92.733,6.2-44.043S43.847,34.514,87.267,34.514Zm77.051-3.263H268.977V.632h-64V-119.337H164.318Zm106.667,0h39.4L322.938-.874h55.718l12.8,32.126h40.408L368.616-119.337H334.232Zm61.741-58.479L350.8-74.663l18.071,47.435ZM447.675,31.251h40.659V-119.337H447.675Zm70.777,0h34.886V-50.819c0-3.514-1-15.059-1-16.063.5,1.757,4.016,12.549,5.522,16.063l33.882,82.071h24.094l33.882-82.071,5.522-16.063c-.251,1-1,12.549-1,16.063V31.251h35.89V-119.337H645.7l-40.91,95.624-40.91-95.624H518.452Zm202.04,0H825.15V.632h-64V-33H812.6V-63.369H761.15V-88.718h64v-30.62H720.491Z" transform="translate(-6.2 122.6)" fill="#101820"/></svg>