<svg xmlns="http://www.w3.org/2000/svg" xmlns:xlink="http://www.w3.org/1999/xlink" width="448" height="548.939" viewBox="0 0 448 548.939"><defs><linearGradient id="a" x1="-0.091" y1="-0.056" x2="0.881" y2="0.668" gradientUnits="objectBoundingBox"><stop offset="0" stop-color="#1da1f2"/><stop offset="0.453" stop-color="#29339b"/><stop offset="1" stop-color="#1f271b"/></linearGradient><linearGradient id="b" x1="0.975" y1="0.888" x2="-0.268" y2="0.073" gradientUnits="objectBoundingBox"><stop offset="0" stop-color="#1da1f2"/><stop offset="0.498" stop-color="#29339b"/><stop offset="1" stop-color="#1f271b"/></linearGradient><linearGradient id="c" x1="1.095" y1="1.328" x2="-0.007" y2="-0.543" gradientUnits="objectBoundingBox"><stop offset="0" stop-color="#1da1f2"/><stop offset="0.507" stop-color="#29339b"/><stop offset="1" stop-color="#1f271b"/></linearGradient></defs><g transform="translate(-322.584 -227.857)"><path d="M697.256,342.575c-73.011-40.048-218.264-75.541-374.672-51.708C378.1,451.333,473.06,582.646,545.048,584.926c-80.353-52.986-105.6-148.048-125.121-242.351,80.1-25.09,177.913-25.09,258.265,0Z" transform="translate(0 -8.439)" fill-rule="evenodd" fill="url(#a)"/><g transform="translate(322.584 227.857)"><path d="M545.037,685.682q113.63-53.62,171.812-191.142H624.61c-20.07,36.255-46.115,68.194-79.574,91.772C477.662,564,385.428,450.683,322.584,292.253Q360.931,599.1,545.037,685.682Z" transform="translate(-322.584 -237.682)" fill-rule="evenodd" fill="url(#b)"/><path d="M748.451,399.286a906,906,0,0,0,22.133-116.858c-109.715-72.761-338.286-72.761-448,0,148.45-18.762,286.8,21.038,355.609,51.708a609.518,609.518,0,0,1-16.363,65.15Z" transform="translate(-322.584 -227.857)" fill-rule="evenodd" fill="url(#c)"/></g></g><ellipse cx="93.5" cy="15.5" rx="93.5" ry="15.5" transform="translate(131 501)" opacity="0.079"/></svg>