<svg xmlns="http://www.w3.org/2000/svg" width="834.812" height="878.601" viewBox="0 0 834.812 878.601">
  <g fill="currentColor" transform="translate(-122.594 -100.7)">
    <path d="M465.8,215.8c-94.5-6.6-205.3,46.4-217.6,146.1a1.991,1.991,0,0,1-3.9.3c-20.8-76.8-14.9-183.7,63.6-226.9C370,103,451,89.6,519.8,111.3c35.5,11.2,61.6,42.4,63.8,79.5.8,12.3-1.1,24-7.1,33.1a21.333,21.333,0,0,1-25,8.6c-.1,0-.1,0-.2-.1A292.7,292.7,0,0,0,465.8,215.8Z"/>
    <path d="M545.3,740.5c-5.3,1.5-10.6,2.8-16,4A330.015,330.015,0,0,1,406.4,749a354.868,354.868,0,0,1-36.6-7.6,7,7,0,0,0-1.4-.3C256.5,710.9,171,625.4,137.6,519.5h-.2l.2-.2c-.5-1.4-.9-2.8-1.3-4.2-14-45.8-17.1-94.2-10.1-141.6l.6-4c9.2-61.9,37.2-122.1,74.3-166.9,3.6-4.3,5.2-3.5,3.7,1.9h0a286.144,286.144,0,0,0,89.9,291,416.479,416.479,0,0,0,90.1,60.4c10.5,5.3,21.1,10.1,31.9,14.4,5,2.1,9.8,3.9,14.9,5.7,2.9,1,5.7,2.1,8.6,2.9a416.3,416.3,0,0,0,118.1,21.3c10.5.3,21.1.3,31.6,0h1.7a29.218,29.218,0,0,1,7.3.6c12,2.7,21.4,13,23.4,25.6a102.333,102.333,0,0,1-13.4,68.2A98.974,98.974,0,0,1,556,737.1h0A102.169,102.169,0,0,1,545.3,740.5Z"/>
    <path d="M607.4,864.2c94.5,6.6,205.3-46.4,217.6-146.1a1.991,1.991,0,0,1,3.9-.3c20.8,76.8,14.9,183.7-63.6,226.9-62.1,32.3-143.1,45.7-211.9,24-35.5-11.2-61.6-42.4-63.8-79.5-.8-12.3,1.1-24.1,7.1-33.2,5.2-7.9,14.9-11.8,23.9-8.9.4.1.8.3,1.2.4A290.862,290.862,0,0,0,607.4,864.2Z"/>
    <path d="M534.7,338.8c5.3-1.5,10.6-2.8,16-4a330.016,330.016,0,0,1,122.9-4.5,354.842,354.842,0,0,1,36.6,7.6,7,7,0,0,0,1.4.3C823.5,368.4,909,453.9,942.4,559.8h.2l-.2.2c.5,1.4.9,2.8,1.3,4.2,14,45.8,17.1,94.2,10.1,141.6l-.6,4C944,771.7,916,831.9,878.9,876.7c-3.6,4.3-5.2,3.5-3.7-1.9h0a286.144,286.144,0,0,0-89.9-291,416.479,416.479,0,0,0-90.1-60.4c-10.5-5.3-21.1-10.1-31.9-14.4-5-2.1-9.8-3.9-14.9-5.7-2.9-1-5.7-2.1-8.6-2.9a416.3,416.3,0,0,0-118.1-21.3c-10.5-.3-21.1-.3-31.6,0h-1.7a29.216,29.216,0,0,1-7.3-.6c-12-2.7-21.4-13-23.4-25.6a102.333,102.333,0,0,1,13.4-68.2A98.974,98.974,0,0,1,524,342.2h0A102.175,102.175,0,0,1,534.7,338.8Z"/>
  </g>
</svg>
