<svg xmlns="http://www.w3.org/2000/svg" width="104.249" height="20" viewBox="0 0 104.249 20"><path d="M16.519-102.6a11.531,11.531,0,0,0,6.741-1.917v-4.409a9.082,9.082,0,0,1-5.879,2.236c-3.227,0-5.687-2.109-5.687-5.911,0-3.834,2.46-5.911,5.687-5.911a9.082,9.082,0,0,1,5.879,2.236v-4.409a11.531,11.531,0,0,0-6.741-1.917c-5.527,0-10.319,3.8-10.319,10S10.992-102.6,16.519-102.6Zm9.808-.415H39.65v-3.9H31.5v-15.272H26.328Zm13.578,0h5.016l1.6-4.089h7.093l1.629,4.089h5.144l-8.051-19.169H47.957Zm7.859-7.444,2.3-6.038,2.3,6.038ZM62.4-103.015h5.176v-19.169H62.4Zm9.01,0h4.441v-10.447c0-.447-.128-1.917-.128-2.045.064.224.511,1.6.7,2.045l4.313,10.447H83.8l4.313-10.447.7-2.045c-.032.128-.128,1.6-.128,2.045v10.447h4.569v-19.169H87.606L82.4-110.012,77.19-122.185H71.408Zm25.719,0h13.323v-3.9H102.3v-4.281h6.55v-3.866H102.3v-3.227h8.147v-3.9H97.126Z" transform="translate(-6.2 122.6)" fill="#1f271b"/></svg>
