<svg xmlns="http://www.w3.org/2000/svg" xmlns:xlink="http://www.w3.org/1999/xlink" width="33" height="32" viewBox="0 0 33 32"><defs><linearGradient id="a" x1="-0.091" y1="-0.056" x2="0.881" y2="0.668" gradientUnits="objectBoundingBox"><stop offset="0" stop-color="#1da1f2"/><stop offset="0.453" stop-color="#29339b"/><stop offset="1" stop-color="#1f271b"/></linearGradient><linearGradient id="b" x1="0.975" y1="0.888" x2="-0.268" y2="0.073" gradientUnits="objectBoundingBox"><stop offset="0" stop-color="#1da1f2"/><stop offset="0.498" stop-color="#29339b"/><stop offset="1" stop-color="#1f271b"/></linearGradient><linearGradient id="c" x1="1.095" y1="1.328" x2="-0.007" y2="-0.543" gradientUnits="objectBoundingBox"><stop offset="0" stop-color="#1da1f2"/><stop offset="0.507" stop-color="#29339b"/><stop offset="1" stop-color="#1f271b"/></linearGradient></defs><g transform="translate(-360 -24)"><path d="M349.346,287.409c-5.215-2.861-15.59-5.4-26.762-3.693,3.965,11.462,11.715,20.841,16.857,21-5.74-3.785-8.51-10.575-9.9-17.311a37.166,37.166,0,0,1,19.809,0Z" transform="translate(37.416 -255.817)" fill-rule="evenodd" fill="url(#a)"/><path d="M339.038,320.355q8.4-3.83,12.708-13.653h-6.822a19.531,19.531,0,0,1-5.886,6.555c-4.983-1.594-11.805-9.688-16.454-21Q325.42,314.171,339.038,320.355Z" transform="translate(37.416 -264.355)" fill-rule="evenodd" fill="url(#b)"/><path d="M353.954,240.1a62.961,62.961,0,0,0,1.63-8.347c-8.082-5.2-24.918-5.2-33,0a53.674,53.674,0,0,1,26.194,3.693,42.46,42.46,0,0,1-1.205,4.654Z" transform="translate(37.416 -203.857)" fill-rule="evenodd" fill="url(#c)"/></g></svg>