<svg xmlns="http://www.w3.org/2000/svg" width="17.625" height="20" viewBox="0 0 17.625 20">
  <g fill="currentColor" transform="translate(112.297 127.433)">
    <g transform="translate(-112.297 -127.433)">
      <path d="M113.065,104.213c-1.193,2.67.877,5.563,1.681,6.12-.231-1.576-.8-4.159.657-5.689,1.386-1.456,5.531-1.7,5.531-1.7v1.029a.766.766,0,0,0,1.046.766l6.115-2.786a.863.863,0,0,0,0-1.533l-6.115-2.786a.766.766,0,0,0-1.046.766v1.033S114.955,99.984,113.065,104.213Z" transform="translate(-112.703 -97.567)"/>
      <path d="M150.7,195.882c1.193-2.67-.877-5.563-1.681-6.12.231,1.576.8,4.159-.657,5.689-1.386,1.456-5.531,1.7-5.531,1.7v-1.029a.766.766,0,0,0-1.046-.766l-6.115,2.786a.863.863,0,0,0,0,1.533l6.115,2.786a.766.766,0,0,0,1.046-.766v-1.033S148.81,200.111,150.7,195.882Z" transform="translate(-133.438 -182.527)"/>
    </g>
  </g>
</svg>
