<svg xmlns="http://www.w3.org/2000/svg" width="20" height="20" viewBox="0 0 20 20">
  <path fill="currentColor" d="M416.887,2908.693v-1.606a1.477,1.477,0,0,1,1.477-1.477h0a1.477,1.477,0,0,1,1.477,1.477v2.954a2.97,2.97,0,0,1-2.969,2.97H402.811a2.97,2.97,0,0,1-2.969-2.97V2895.98a2.97,2.97,0,0,1,2.969-2.969h2.954a1.477,1.477,0,0,1,1.477,1.477h0a1.476,1.476,0,0,1-1.477,1.477h-1.606a1.363,1.363,0,0,0-1.363,1.364v11.365a1.363,1.363,0,0,0,1.363,1.364h11.366A1.363,1.363,0,0,0,416.887,2908.693Zm-6.692-14.206h0a1.476,1.476,0,0,0,1.477,1.477h3.106l-5.92,5.92a1.477,1.477,0,0,0,0,2.088h0a1.477,1.477,0,0,0,2.089,0l5.94-5.939v3.146a1.476,1.476,0,0,0,1.477,1.476h0a1.476,1.476,0,0,0,1.477-1.476v-8.169h-8.169A1.477,1.477,0,0,0,410.2,2894.487Z" transform="translate(-399.841 -2893.011)"/>
</svg>
