
<svg xmlns="http://www.w3.org/2000/svg" width="30" height="24" viewBox="0 0 30 24">
  <g fill="currentColor" transform="translate(-138.38 -840.7)">
    <path d="M260.561,961.244a12.461,12.461,0,0,1-3.535.954,6.094,6.094,0,0,0,2.706-3.352,12.437,12.437,0,0,1-3.908,1.47c-4.234-4.441-11.932-.57-10.488,5.525a17.566,17.566,0,0,1-12.686-6.329,6.007,6.007,0,0,0,1.9,8.087,6.2,6.2,0,0,1-2.788-.758,6.086,6.086,0,0,0,4.937,6.016,6.27,6.27,0,0,1-2.78.1,6.15,6.15,0,0,0,5.75,4.207,12.518,12.518,0,0,1-9.112,2.508A17.621,17.621,0,0,0,240,982.4,17.251,17.251,0,0,0,257.49,964.38,12.4,12.4,0,0,0,260.561,961.244Z" transform="translate(-92.181 -117.7)"/>
  </g>
</svg>
