<svg xmlns="http://www.w3.org/2000/svg" xmlns:xlink="http://www.w3.org/1999/xlink" width="56" height="56" viewBox="0 0 56 56"><defs><radialGradient id="a" cx="0" cy="0.5" r="1" gradientUnits="objectBoundingBox"><stop offset="0" stop-color="#5d9df6"/><stop offset="1" stop-color="#006fff"/></radialGradient></defs><rect width="56" height="56" rx="28" fill="url(#a)"/><path d="M115.618,153.183a13.628,13.628,0,0,1,18.985,0l.631.618a.648.648,0,0,1,0,.929l-2.158,2.113a.341.341,0,0,1-.475,0l-.868-.85a9.507,9.507,0,0,0-13.245,0l-.93.91a.341.341,0,0,1-.475,0l-2.158-2.113a.648.648,0,0,1,0-.929Zm23.449,4.37,1.921,1.881a.648.648,0,0,1,0,.929l-8.662,8.481a.681.681,0,0,1-.949,0h0l-6.148-6.019a.17.17,0,0,0-.237,0h0l-6.148,6.019a.681.681,0,0,1-.949,0h0l-8.662-8.481a.648.648,0,0,1,0-.929l1.921-1.881a.681.681,0,0,1,.949,0l6.148,6.019a.17.17,0,0,0,.237,0h0l6.147-6.019a.681.681,0,0,1,.949,0h0l6.148,6.019a.17.17,0,0,0,.237,0l6.148-6.019A.681.681,0,0,1,139.068,157.554Z" transform="translate(-97.111 -133)" fill="#fff"/></svg>