<svg xmlns="http://www.w3.org/2000/svg" width="120" height="120" viewBox="0 0 120 120">
  <g fill="currentColor" transform="translate(-340.37 -837.551)">
    <g transform="translate(340.37 837.551)">
      <path d="M400.37,957.551a59.826,59.826,0,1,1,23.356-4.717A59.628,59.628,0,0,1,400.37,957.551Zm0-111.443a51.269,51.269,0,1,0,20.023,4.041A51.116,51.116,0,0,0,400.37,846.108Z" transform="translate(-340.37 -837.551)"/>
    </g>
    <ellipse cx="8.226" cy="10.493" rx="8.226" ry="10.493" transform="translate(413.915 879.488)"/>
    <ellipse cx="8.226" cy="10.493" rx="8.226" ry="10.493" transform="translate(370.373 879.488)"/>
    <path d="M674.723,1469.667a26.769,26.769,0,0,0-10.63-12.84,30.542,30.542,0,0,0-30.492,0,26.772,26.772,0,0,0-10.63,12.841,4.279,4.279,0,0,0,5.539,5.618l.093-.039a51.489,51.489,0,0,1,40.488,0,4.279,4.279,0,0,0,5.631-5.58Z" transform="translate(-248.477 -541.543)"/>
  </g>
</svg>
