<svg xmlns="http://www.w3.org/2000/svg" width="120" height="90" viewBox="-60 -60 240 210">
  <g opacity="0.913" >
    <g transform="translate(0 0)">
      <g transform="translate(0 0)">
        <path d="M103,7.718A100.559,100.559,0,0,0,77.913,0,68.915,68.915,0,0,0,74.7,6.532a93.415,93.415,0,0,0-27.839,0A69.21,69.21,0,0,0,43.647,0a101.267,101.267,0,0,0-25.1,7.737C2.668,31.225-1.635,54.129.516,76.708h0A101.114,101.114,0,0,0,31.282,92.153a74.308,74.308,0,0,0,6.589-10.625,65.432,65.432,0,0,1-10.376-4.954c.87-.631,1.721-1.282,2.544-1.913a72.271,72.271,0,0,0,61.512,0c.832.679,1.683,1.329,2.544,1.913a65.683,65.683,0,0,1-10.4,4.963,73.638,73.638,0,0,0,6.589,10.615,100.655,100.655,0,0,0,30.785-15.435h0C123.6,50.533,116.76,27.839,103,7.718Zm-62.4,55.1c-6,0-10.95-5.442-10.95-12.136S34.428,38.5,40.577,38.5s11.065,5.489,10.96,12.184S46.708,62.822,40.6,62.822Zm40.4,0c-6.006,0-10.941-5.442-10.941-12.136S74.834,38.5,80.992,38.5s11.036,5.489,10.931,12.184S87.1,62.822,80.992,62.822Z" transform="translate(0)" fill="#fff"/>
      </g>
    </g>
  </g>
</svg>
