<svg xmlns="http://www.w3.org/2000/svg" width="24" height="24" viewBox="0 0 24 24">
  <path fill="currentColor" d="M388,126c-7.065,0-12,4.935-12,12,0,7.177,4.822,12,12,12a12.026,12.026,0,0,0,5.762-1.47,1.715,1.715,0,0,0-1.649-3.007A8.56,8.56,0,0,1,388,146.571c-5.287,0-8.571-3.285-8.571-8.571,0-5.126,3.445-8.571,8.571-8.571,5.847,0,8.571,2.724,8.571,8.571,0,2.355-.493,2.972-.644,3.1-.06.054-.231.206-1.024.134-.046-.4-.046-1.1-.046-1.592v-6.172a1.714,1.714,0,0,0-1.714-1.714,1.69,1.69,0,0,0-1.1.427A7.984,7.984,0,0,0,388,131.143,6.784,6.784,0,0,0,381.143,138,6.707,6.707,0,0,0,388,144.857a8.049,8.049,0,0,0,4.345-1.184,2.911,2.911,0,0,0,1.917.946,4.8,4.8,0,0,0,3.93-.941C399.426,142.593,400,140.789,400,138,400,130.263,395.739,126,388,126Zm0,15.429A3.316,3.316,0,0,1,384.571,138,3.4,3.4,0,0,1,388,134.571c1.7,0,3.429.765,3.429,2.229v2.541C391.429,140.712,389.7,141.429,388,141.429Z" transform="translate(-376 -126)"/>
</svg>
