
<svg xmlns="http://www.w3.org/2000/svg" width="120" height="120" viewBox="0 0 120 120">
  <g fill="currentColor" transform="translate(-6793.907 -837.551)">
    <g transform="translate(6793.907 837.551)">
      <path d="M6853.907,957.551a59.82,59.82,0,1,1,23.356-4.717A59.632,59.632,0,0,1,6853.907,957.551Zm0-111.443a51.267,51.267,0,1,0,20.022,4.041A51.115,51.115,0,0,0,6853.907,846.108Z" transform="translate(-6793.907 -837.551)"/>
    </g>
    <ellipse cx="8.226" cy="10.493" rx="8.226" ry="10.493" transform="translate(6867.452 879.488)"/>
    <ellipse cx="8.226" cy="10.493" rx="8.226" ry="10.493" transform="translate(6823.91 879.488)"/>
    <path d="M7115.186,1471.093a4.128,4.128,0,0,0-4.329-1.106q-.162.054-.318.121a56.949,56.949,0,0,1-44.781,0,4.128,4.128,0,0,0-5.433,5.383,28.772,28.772,0,0,0,11.42,13.8,32.892,32.892,0,0,0,32.807,0,28.766,28.766,0,0,0,11.42-13.8A4.128,4.128,0,0,0,7115.186,1471.093Z" transform="translate(-234.242 -556.531)"/>
  </g>
</svg>
