<svg xmlns="http://www.w3.org/2000/svg" width="25" height="25" viewBox="0 0 25 25">
  <g fill="currentColor" transform="translate(-845.5 -551.5)">
    <path d="M123.492,115.455a2.108,2.108,0,0,0,.094-.331A12,12,0,0,0,112.158,100v0h-.315v0a12,12,0,0,0-11.429,15.123,2.088,2.088,0,0,0,.094.33A12.021,12.021,0,0,0,111.843,124v0h.315v0A12.021,12.021,0,0,0,123.492,115.455Zm-2.158.792a9.656,9.656,0,0,1-3.436,1.248,21.613,21.613,0,0,0,.578-4.583A10.5,10.5,0,0,0,122,111.563a4.961,4.961,0,0,0,.8-.648q.053.535.054,1.084a10.824,10.824,0,0,1-.455,3.111A2.726,2.726,0,0,1,121.334,116.247Zm-19.751-1.188q-.027-.092-.052-.184v0a10.83,10.83,0,0,1-.387-2.874q0-.549.054-1.084a4.961,4.961,0,0,0,.8.648,10.5,10.5,0,0,0,3.526,1.349,21.6,21.6,0,0,0,.579,4.588C102.581,116.8,101.767,115.536,101.582,115.059Zm1.5-9.241a3.693,3.693,0,0,0,.87.6,8.629,8.629,0,0,0,2.015.684,23.591,23.591,0,0,0-.452,4.642c-3.528-.825-3.972-2.232-4.022-2.472A10.813,10.813,0,0,1,103.08,105.818Zm19.429,3.45c-.05.239-.493,1.646-4.022,2.472a23.6,23.6,0,0,0-.452-4.642,8.629,8.629,0,0,0,2.015-.684,3.7,3.7,0,0,0,.87-.6A10.813,10.813,0,0,1,122.509,109.268Zm-5.163,2.7a31.615,31.615,0,0,1-4.774.373v-4.724a31.614,31.614,0,0,0,4.332-.307A22.351,22.351,0,0,1,117.346,111.966Zm-4.774-5.494v-5.189a4.9,4.9,0,0,1,1.979,1.206,8.388,8.388,0,0,1,2.069,3.705A30.75,30.75,0,0,1,112.571,106.472Zm-3.122-3.983a4.9,4.9,0,0,1,1.979-1.206v5.189a30.691,30.691,0,0,1-4.047-.28A8.387,8.387,0,0,1,109.45,102.49Zm1.979,5.126v4.724a31.614,31.614,0,0,1-4.774-.373,22.346,22.346,0,0,1,.443-4.658A31.614,31.614,0,0,0,111.429,107.616Zm-4.753,5.511a33.459,33.459,0,0,0,4.753.356v4.5a33.526,33.526,0,0,1-4.076-.271A19.067,19.067,0,0,1,106.676,113.126Zm4.753,5.994v3.6a4.9,4.9,0,0,1-1.979-1.206,7.589,7.589,0,0,1-1.68-2.6A36.4,36.4,0,0,0,111.429,119.12Zm3.122,2.39a4.9,4.9,0,0,1-1.979,1.207v-3.6a36.4,36.4,0,0,0,3.658-.211A7.589,7.589,0,0,1,114.55,121.51Zm-1.979-3.533v-4.5a33.459,33.459,0,0,0,4.753-.356,19.072,19.072,0,0,1-.676,4.577A33.249,33.249,0,0,1,112.571,117.977Zm7.642-13.07a2.31,2.31,0,0,1-.684.488,7.5,7.5,0,0,1-1.77.591,9.57,9.57,0,0,0-2.414-4.316A10.89,10.89,0,0,1,120.214,104.908Zm-11.56-3.236a9.569,9.569,0,0,0-2.413,4.315,8.594,8.594,0,0,1-1.427-.432,2.768,2.768,0,0,1-1.028-.646A10.89,10.89,0,0,1,108.654,101.671ZM102.69,117.58a13.1,13.1,0,0,0,3.778,1.147,9.1,9.1,0,0,0,2.187,3.6A10.91,10.91,0,0,1,102.69,117.58Zm12.656,4.749a9.106,9.106,0,0,0,2.187-3.6,13.1,13.1,0,0,0,3.778-1.147A10.91,10.91,0,0,1,115.346,122.329Z" transform="translate(746 452)"/>
    <path d="M112.158,124.5h-.815v-.018a12.375,12.375,0,0,1-6.924-2.551,12.626,12.626,0,0,1-4.385-6.317,2.6,2.6,0,0,1-.107-.375,12.51,12.51,0,0,1,11.416-15.721V99.5l.5,0h.815v.018a12.5,12.5,0,0,1,11.416,15.72,2.614,2.614,0,0,1-.107.376,12.626,12.626,0,0,1-4.385,6.317,12.376,12.376,0,0,1-6.924,2.551v.016Zm-.159-1h0l.118,0h.031a11.458,11.458,0,0,0,10.862-8.187l.01-.03a1.611,1.611,0,0,0,.072-.252l.008-.035A11.5,11.5,0,0,0,112.151,100.5h-.031l-.12,0h-.151A11.5,11.5,0,0,0,100.9,114.995l.008.035a1.59,1.59,0,0,0,.072.251l.01.03a11.458,11.458,0,0,0,10.862,8.187h.031Zm.073-.108v-4.766l.494-.006a36.061,36.061,0,0,0,3.608-.208l.841-.1-.322.782a8.132,8.132,0,0,1-1.794,2.77,5.422,5.422,0,0,1-2.181,1.326Zm1-3.781v2.363a4.732,4.732,0,0,0,1.13-.822,6.516,6.516,0,0,0,1.207-1.66C114.673,119.553,113.892,119.593,113.071,119.612Zm-1.143,3.78-.646-.2a5.42,5.42,0,0,1-2.181-1.326,8.131,8.131,0,0,1-1.794-2.77l-.322-.782.841.1a36.062,36.062,0,0,0,3.608.208l.494.006Zm-3.337-3.9a6.515,6.515,0,0,0,1.207,1.66,4.731,4.731,0,0,0,1.13.822v-2.362C110.108,119.593,109.327,119.553,108.592,119.492ZM115.5,122.8l-.5-.834a8.648,8.648,0,0,0,2.063-3.408l.1-.279.292-.049a12.663,12.663,0,0,0,3.632-1.1l1.562-.8-.905,1.5A11.39,11.39,0,0,1,115.5,122.8Zm2.4-3.635a10.852,10.852,0,0,1-.93,1.913,10.4,10.4,0,0,0,2.933-2.4A16.627,16.627,0,0,1,117.9,119.169Zm-9.4,3.635a11.39,11.39,0,0,1-6.238-4.967l-.905-1.505,1.562.8a12.66,12.66,0,0,0,3.632,1.1l.292.049.1.279A8.646,8.646,0,0,0,109,121.97Zm-4.407-4.123a10.4,10.4,0,0,0,2.933,2.4,10.85,10.85,0,0,1-.93-1.913A16.629,16.629,0,0,1,104.092,118.682Zm7.979-.2v-5.5l.494-.006a33.1,33.1,0,0,0,4.681-.35l.6-.094-.024.608a19.717,19.717,0,0,1-.7,4.7l-.091.312-.322.044a33.987,33.987,0,0,1-4.139.279Zm1-4.51v3.495c1.155-.028,2.223-.1,3.184-.219a18.492,18.492,0,0,0,.539-3.542A34.816,34.816,0,0,1,113.071,113.974Zm-1.143,4.51-.506-.006a34.259,34.259,0,0,1-4.138-.276l-.322-.044-.091-.312a19.711,19.711,0,0,1-.7-4.7l-.024-.608.6.094a33.1,33.1,0,0,0,4.681.35l.494.006Zm-4.184-1.231c.959.116,2.027.189,3.184.216v-3.495a34.815,34.815,0,0,1-3.723-.266A18.486,18.486,0,0,0,107.745,117.252Zm-.966.892-.774-.154c-3.6-.716-4.611-2.03-4.89-2.75l-.013-.04q-.028-.1-.055-.193h0l0-.006-.008-.028a11.347,11.347,0,0,1-.4-2.972c0-.376.019-.758.056-1.134l.105-1.056.747.754a4.5,4.5,0,0,0,.721.582,10.047,10.047,0,0,0,3.357,1.278l.382.083.011.391a21.2,21.2,0,0,0,.564,4.481Zm-4.724-3.248c.1.251.685,1.265,3.387,1.944a23,23,0,0,1-.4-3.526,10.557,10.557,0,0,1-3.315-1.333l-.081-.054q0,.037,0,.073a10.346,10.346,0,0,0,.369,2.741l-.383.105h.007l.377-.1Q102.033,114.819,102.056,114.9Zm15.166,3.244.191-.766a21.208,21.208,0,0,0,.563-4.477l.011-.391.382-.083a10.048,10.048,0,0,0,3.357-1.278,4.5,4.5,0,0,0,.721-.582l.747-.754.105,1.056c.037.376.056.758.056,1.134a11.333,11.333,0,0,1-.476,3.254l-.008.027-.011.026a3.205,3.205,0,0,1-1.252,1.356A10.291,10.291,0,0,1,118,117.985Zm1.74-4.826a23.013,23.013,0,0,1-.4,3.521,8.2,8.2,0,0,0,2.5-1,2.31,2.31,0,0,0,.874-.892,10.334,10.334,0,0,0,.425-2.938q0-.036,0-.073l-.081.054A10.557,10.557,0,0,1,118.962,113.314Zm-6.89-.468v-5.724l.494-.006a31.241,31.241,0,0,0,4.262-.3l.465-.071.1.46a23.013,23.013,0,0,1,.454,4.762v.424l-.418.07a32.366,32.366,0,0,1-4.851.38Zm1-4.738v3.723a31.572,31.572,0,0,0,3.771-.292,22.271,22.271,0,0,0-.337-3.669A32.707,32.707,0,0,1,113.071,108.107Zm-1.143,4.738-.506-.006a32.365,32.365,0,0,1-4.851-.38l-.418-.07v-.424a23.007,23.007,0,0,1,.454-4.762l.1-.46.465.071a31.24,31.24,0,0,0,4.262.3l.494.006Zm-4.771-1.306a31.572,31.572,0,0,0,3.771.292v-3.723a32.707,32.707,0,0,1-3.434-.238A22.261,22.261,0,0,0,107.158,111.539Zm10.834.83-.005-.625a23.2,23.2,0,0,0-.441-4.543l-.1-.482.481-.108a8.174,8.174,0,0,0,1.9-.642,3.229,3.229,0,0,0,.753-.513l.422-.4.332.478a11.282,11.282,0,0,1,1.662,3.61l.029.113-.024.115c-.094.451-.689,1.989-4.4,2.856Zm.625-4.9a24.157,24.157,0,0,1,.358,3.628c2.346-.661,2.894-1.552,3.013-1.84a10.264,10.264,0,0,0-1.186-2.709,4.889,4.889,0,0,1-.525.309A8.41,8.41,0,0,1,118.618,107.47Zm-12.61,4.9-.609-.142c-3.708-.867-4.3-2.406-4.4-2.856l-.024-.115.029-.113a11.282,11.282,0,0,1,1.662-3.61l.332-.478.422.4a3.227,3.227,0,0,0,.753.513,8.174,8.174,0,0,0,1.9.642l.481.108-.1.482a23.19,23.19,0,0,0-.441,4.543Zm-4-3.111c.119.288.667,1.179,3.013,1.84a24.151,24.151,0,0,1,.358-3.628,8.409,8.409,0,0,1-1.66-.611,4.891,4.891,0,0,1-.525-.309A10.264,10.264,0,0,0,102.011,109.258Zm9.917-2.28-.506-.006a31.471,31.471,0,0,1-4.113-.285l-.573-.084.166-.554a8.95,8.95,0,0,1,2.2-3.918,5.42,5.42,0,0,1,2.181-1.326l.646-.2Zm-3.885-1.2c.856.1,1.823.163,2.885.188v-3.938a4.731,4.731,0,0,0-1.13.822A7.517,7.517,0,0,0,108.043,105.776Zm4.028,1.2v-6.37l.646.2a5.42,5.42,0,0,1,2.181,1.326,8.949,8.949,0,0,1,2.2,3.92l.166.554-.573.084a31.518,31.518,0,0,1-4.114.283Zm1-4.952v3.938c1.066-.025,2.032-.087,2.886-.187a7.517,7.517,0,0,0-1.756-2.929A4.73,4.73,0,0,0,113.071,102.026Zm4.338,4.552-.13-.452a9.114,9.114,0,0,0-2.281-4.1l.5-.834a11.382,11.382,0,0,1,5.092,3.385l.287.332-.292.328a2.827,2.827,0,0,1-.83.6,8.083,8.083,0,0,1-1.889.634Zm-.435-3.659a11.305,11.305,0,0,1,1.125,2.471,6.2,6.2,0,0,0,1.2-.439c.069-.035.129-.069.183-.1A10.408,10.408,0,0,0,116.975,102.918Zm-10.383,3.658-.459-.1a9.165,9.165,0,0,1-1.51-.458,3.3,3.3,0,0,1-1.211-.777l-.29-.328.286-.331A11.382,11.382,0,0,1,108.5,101.2l.5.834a9.112,9.112,0,0,0-2.281,4.094Zm-2.077-1.726a3.817,3.817,0,0,0,.492.243,7.141,7.141,0,0,0,.9.3,11.307,11.307,0,0,1,1.124-2.47A10.407,10.407,0,0,0,104.514,104.85Z" transform="translate(746 452)"/>
  </g>
</svg>
