<svg xmlns="http://www.w3.org/2000/svg" xmlns:xlink="http://www.w3.org/1999/xlink" width="600" height="440" viewBox="0 0 600 440"><defs><filter id="a" x="216.722" y="35.12" width="90.5" height="90.499" filterUnits="userSpaceOnUse"><feOffset dx="8" dy="8" input="SourceAlpha"/><feGaussianBlur stdDeviation="1.5" result="b"/><feFlood flood-opacity="0.161"/><feComposite operator="in" in2="b"/><feComposite in="SourceGraphic"/></filter><linearGradient id="c" x1="0.196" y1="1.026" x2="0.804" y2="-0.026" gradientUnits="objectBoundingBox"><stop offset="0.018" stop-color="#feaf23"/><stop offset="0.074" stop-color="#fca222"/><stop offset="0.175" stop-color="#f98121"/><stop offset="0.312" stop-color="#f44b1f"/><stop offset="0.449" stop-color="#ee0e1d"/><stop offset="0.679" stop-color="#bb238d"/><stop offset="1" stop-color="#4d459d"/></linearGradient><filter id="d" x="216.722" y="137.167" width="173.5" height="173.497" filterUnits="userSpaceOnUse"><feOffset dx="8" dy="8" input="SourceAlpha"/><feGaussianBlur stdDeviation="1.5" result="e"/><feFlood flood-opacity="0.161"/><feComposite operator="in" in2="e"/><feComposite in="SourceGraphic"/></filter><filter id="f" x="393.804" y="24" width="163.418" height="163.517" filterUnits="userSpaceOnUse"><feOffset dx="8" dy="8" input="SourceAlpha"/><feGaussianBlur stdDeviation="1.5" result="g"/><feFlood flood-opacity="0.161"/><feComposite operator="in" in2="g"/><feComposite in="SourceGraphic"/></filter><filter id="h" x="55.5" y="99.009" width="145.722" height="145.72" filterUnits="userSpaceOnUse"><feOffset dx="8" dy="8" input="SourceAlpha"/><feGaussianBlur stdDeviation="1.5" result="i"/><feFlood flood-opacity="0.161"/><feComposite operator="in" in2="i"/><feComposite in="SourceGraphic"/></filter><filter id="j" x="131.506" y="312.211" width="117.286" height="117.289" filterUnits="userSpaceOnUse"><feOffset dx="8" dy="8" input="SourceAlpha"/><feGaussianBlur stdDeviation="1.5" result="k"/><feFlood flood-opacity="0.161"/><feComposite operator="in" in2="k"/><feComposite in="SourceGraphic"/></filter><filter id="l" x="416.561" y="207.108" width="76.5" height="76.497" filterUnits="userSpaceOnUse"><feOffset dx="8" dy="8" input="SourceAlpha"/><feGaussianBlur stdDeviation="1.5" result="m"/><feFlood flood-opacity="0.161"/><feComposite operator="in" in2="m"/><feComposite in="SourceGraphic"/></filter><filter id="n" x="384.655" y="312.211" width="108.406" height="108.403" filterUnits="userSpaceOnUse"><feOffset dx="8" dy="8" input="SourceAlpha"/><feGaussianBlur stdDeviation="1.5" result="o"/><feFlood flood-opacity="0.161"/><feComposite operator="in" in2="o"/><feComposite in="SourceGraphic"/></filter><linearGradient id="p" x2="1" y2="1" gradientUnits="objectBoundingBox"><stop offset="0" stop-color="#fff"/><stop offset="0.291" stop-color="#fff" stop-opacity="0.345"/><stop offset="0.468" stop-color="#fff" stop-opacity="0.09"/><stop offset="1" stop-color="#fff" stop-opacity="0"/></linearGradient></defs><g transform="translate(-955.778 -2007.5)"><g transform="matrix(1, 0, 0, 1, 955.78, 2007.5)" filter="url(#a)"><path d="M-3949.815-1842.9h-45.367a15.727,15.727,0,0,1-6.157-1.243,15.763,15.763,0,0,1-5.028-3.389,15.748,15.748,0,0,1-3.39-5.027,15.716,15.716,0,0,1-1.243-6.156v-45.367a15.721,15.721,0,0,1,1.243-6.157,15.75,15.75,0,0,1,3.39-5.028,15.764,15.764,0,0,1,5.028-3.389,15.723,15.723,0,0,1,6.157-1.243h45.367a15.716,15.716,0,0,1,6.156,1.243,15.771,15.771,0,0,1,5.027,3.389,15.757,15.757,0,0,1,3.389,5.028,15.721,15.721,0,0,1,1.243,6.157v45.367a15.716,15.716,0,0,1-1.243,6.156,15.755,15.755,0,0,1-3.389,5.027,15.766,15.766,0,0,1-5.027,3.389A15.72,15.72,0,0,1-3949.815-1842.9Zm-23.165-64.005a25.393,25.393,0,0,0-25.381,25.349,25.394,25.394,0,0,0,25.381,25.35,25.4,25.4,0,0,0,25.383-25.35A25.394,25.394,0,0,0-3972.98-1906.906Zm0,46.8a21.344,21.344,0,0,1-7.026-1.182,21.391,21.391,0,0,1-6.053-3.277,23.442,23.442,0,0,1,4.227-5.563,30.84,30.84,0,0,1,5.083-4.1,34.915,34.915,0,0,1,7.495-3.632l.009,0,.014-.006a92.925,92.925,0,0,1,3.244,10.177c.722,2.814,1.119,4.917,1.292,5.921A21.276,21.276,0,0,1-3972.98-1860.109Zm12.145-3.775h0a93.38,93.38,0,0,0-4.109-15.036,28.1,28.1,0,0,1,4.316-.324,32.7,32.7,0,0,1,5.775.522,27.1,27.1,0,0,1,3.026.708,21.308,21.308,0,0,1-1.156,4.218,21.453,21.453,0,0,1-1.951,3.825,21.619,21.619,0,0,1-2.65,3.337,21.637,21.637,0,0,1-3.252,2.751Zm-28.189-3.449h0a21.412,21.412,0,0,1-3.958-6.475,21.227,21.227,0,0,1-1.44-7.715c0-.187,0-.365.008-.529.129,0,.321,0,.564,0a80.465,80.465,0,0,0,21.417-3.045c.589,1.154,1.14,2.306,1.638,3.423-.212.061-.463.134-.712.215a29.314,29.314,0,0,0-7.131,3.457,34.58,34.58,0,0,0-5.306,4.341,34.986,34.986,0,0,0-5.078,6.325Zm37.482-14.55h0a52.654,52.654,0,0,0-9.919-.959,40.092,40.092,0,0,0-4.887.284l-.107-.259c-.1-.25-.21-.509-.32-.765-.407-.955-.856-1.938-1.375-3.007a33.617,33.617,0,0,0,8.47-4.972,21.7,21.7,0,0,0,3.4-3.382,21.344,21.344,0,0,1,3.423,6.022,21.285,21.285,0,0,1,1.313,7.036Zm-42.185-4.18h-.21a21.278,21.278,0,0,1,1.6-4.676,21.491,21.491,0,0,1,2.587-4.119,21.626,21.626,0,0,1,3.428-3.421,21.532,21.532,0,0,1,4.128-2.58,139.706,139.706,0,0,1,7.846,12.215,80.18,80.18,0,0,1-12.407,2.2C-3990.222-1886.1-3992.786-1886.063-3993.727-1886.063Zm23.8-3.955h0a115.215,115.215,0,0,0-7.888-12.368,21.439,21.439,0,0,1,4.834-.552,21.311,21.311,0,0,1,7.676,1.418,21.4,21.4,0,0,1,6.452,3.9c-.578.79-3.831,4.864-11.074,7.6Z" transform="translate(4228.22 1955.52)" fill="#ea2b7f" stroke="rgba(0,0,0,0)" stroke-miterlimit="10" stroke-width="1"/></g><g transform="matrix(1, 0, 0, 1, 955.78, 2007.5)" filter="url(#d)"><path d="M-1862.863,160h-94.268a32.671,32.671,0,0,1-12.794-2.582,32.757,32.757,0,0,1-10.448-7.042,32.75,32.75,0,0,1-7.044-10.446A32.657,32.657,0,0,1-1990,127.134V32.865a32.661,32.661,0,0,1,2.583-12.794,32.751,32.751,0,0,1,7.044-10.446,32.757,32.757,0,0,1,10.448-7.043A32.67,32.67,0,0,1-1957.131,0h94.268a32.66,32.66,0,0,1,12.792,2.582,32.748,32.748,0,0,1,10.446,7.043,32.753,32.753,0,0,1,7.042,10.446A32.669,32.669,0,0,1-1830,32.865v94.269a32.664,32.664,0,0,1-2.582,12.793,32.753,32.753,0,0,1-7.042,10.446,32.748,32.748,0,0,1-10.446,7.042A32.661,32.661,0,0,1-1862.863,160ZM-1930.48,26.638a32.683,32.683,0,0,0-12.8,2.584,32.764,32.764,0,0,0-10.452,7.047,32.767,32.767,0,0,0-7.046,10.453,32.689,32.689,0,0,0-2.584,12.8V100.48a32.67,32.67,0,0,0,2.584,12.8,32.767,32.767,0,0,0,7.046,10.451,32.77,32.77,0,0,0,10.452,7.047,32.681,32.681,0,0,0,12.8,2.584h40.963a32.668,32.668,0,0,0,12.8-2.584,32.775,32.775,0,0,0,10.451-7.047,32.777,32.777,0,0,0,7.047-10.451,32.669,32.669,0,0,0,2.584-12.8V59.524a32.688,32.688,0,0,0-2.584-12.8,32.772,32.772,0,0,0-7.047-10.453,32.768,32.768,0,0,0-10.451-7.047,32.671,32.671,0,0,0-12.8-2.584Zm37.03,96.478h-33.1a26.417,26.417,0,0,1-10.343-2.087,26.484,26.484,0,0,1-8.447-5.693,26.48,26.48,0,0,1-5.7-8.445,26.4,26.4,0,0,1-2.088-10.344v-33.1a26.389,26.389,0,0,1,2.088-10.34,26.494,26.494,0,0,1,5.7-8.446,26.5,26.5,0,0,1,8.447-5.7,26.4,26.4,0,0,1,10.343-2.089h33.1a26.385,26.385,0,0,1,10.34,2.089,26.48,26.48,0,0,1,8.444,5.7,26.492,26.492,0,0,1,5.693,8.446,26.4,26.4,0,0,1,2.087,10.34v33.1a26.415,26.415,0,0,1-2.087,10.344,26.479,26.479,0,0,1-5.693,8.445,26.473,26.473,0,0,1-8.444,5.693A26.4,26.4,0,0,1-1893.45,123.117ZM-1909.921,53.5a26.607,26.607,0,0,0-10.418,2.1,26.66,26.66,0,0,0-8.506,5.733,26.653,26.653,0,0,0-5.734,8.5,26.6,26.6,0,0,0-2.1,10.417,26.584,26.584,0,0,0,2.1,10.413,26.669,26.669,0,0,0,5.734,8.506,26.668,26.668,0,0,0,8.506,5.736,26.592,26.592,0,0,0,10.418,2.1,26.584,26.584,0,0,0,10.416-2.1A26.676,26.676,0,0,0-1891,99.181a26.674,26.674,0,0,0,5.735-8.506,26.578,26.578,0,0,0,2.1-10.413,26.592,26.592,0,0,0-2.1-10.417,26.659,26.659,0,0,0-5.735-8.5,26.662,26.662,0,0,0-8.505-5.733A26.6,26.6,0,0,0-1909.921,53.5Zm27.512-9.022a7.155,7.155,0,0,0-7.142,7.153,7.152,7.152,0,0,0,7.142,7.147,7.159,7.159,0,0,0,7.156-7.147A7.163,7.163,0,0,0-1882.41,44.483Zm-27.512,51.877a16,16,0,0,1-11.388-4.717,15.99,15.99,0,0,1-4.716-11.381,16,16,0,0,1,4.716-11.387,16,16,0,0,1,11.388-4.714,15.989,15.989,0,0,1,11.381,4.714,16,16,0,0,1,4.715,11.387,15.992,15.992,0,0,1-4.715,11.381A15.988,15.988,0,0,1-1909.921,96.36Z" transform="translate(2207.22 137.67)" stroke="rgba(0,0,0,0)" stroke-miterlimit="10" stroke-width="1" fill="url(#c)"/></g><g transform="translate(419.768 1761.42)"><g transform="matrix(1, 0, 0, 1, 536.01, 246.08)" filter="url(#f)"><path d="M102.86,150.017h-22.6v-.1H30.8A30.766,30.766,0,0,1,0,119.121V30.795A30.769,30.769,0,0,1,30.8,0h88.331a30.766,30.766,0,0,1,30.791,30.795v88.326a30.763,30.763,0,0,1-30.791,30.792H102.86v.1Zm-22.6-56.164v56.06h22.6V93.853h18.855l2.823-21.886H102.86V57.992c0-3.67.623-6.046,2.021-7.7,1.674-1.986,4.563-2.951,8.832-2.951L125.3,47.33V27.753a155.429,155.429,0,0,0-16.882-.862c-8.385,0-15.42,2.573-20.345,7.442a24.7,24.7,0,0,0-5.76,9.068,35.666,35.666,0,0,0-2.048,12.425V71.967H61.356V93.853Z" transform="translate(394.3 24.5)" fill="#2a3479" stroke="rgba(0,0,0,0)" stroke-miterlimit="10" stroke-width="1"/></g></g><g transform="matrix(1, 0, 0, 1, 955.78, 2007.5)" filter="url(#h)"><path d="M-1884.935,132.22h-77.9a27,27,0,0,1-10.573-2.134,27.069,27.069,0,0,1-8.634-5.82,27.063,27.063,0,0,1-5.821-8.632A26.984,26.984,0,0,1-1990,105.063V27.16a26.989,26.989,0,0,1,2.135-10.573,27.065,27.065,0,0,1,5.821-8.633,27.069,27.069,0,0,1,8.634-5.82A27,27,0,0,1-1962.837,0h77.9a26.989,26.989,0,0,1,10.571,2.134,27.062,27.062,0,0,1,8.632,5.82,27.065,27.065,0,0,1,5.82,8.633,27,27,0,0,1,2.134,10.573v77.9a26.993,26.993,0,0,1-2.134,10.572,27.064,27.064,0,0,1-5.82,8.632,27.06,27.06,0,0,1-8.632,5.82A26.99,26.99,0,0,1-1884.935,132.22Zm-40.105-73.882a240.006,240.006,0,0,0-26.74,1.033,9.415,9.415,0,0,0-8.054,7.317c-1.312,5.7-1.312,12.03-1.312,17.619,0,5.886,0,11.972,1.3,17.615a9.43,9.43,0,0,0,8.054,7.324,240.483,240.483,0,0,0,26.74,1.031h2.325a240.628,240.628,0,0,0,26.739-1.031,9.44,9.44,0,0,0,8.057-7.324c1.3-5.666,1.3-11.74,1.3-17.615v-.071c0-5.862,0-11.922-1.289-17.547a9.419,9.419,0,0,0-8.055-7.317,240.1,240.1,0,0,0-26.743-1.033h-2.322Zm10.582-29.625V48.571a12.8,12.8,0,0,0,.405,3.734,2.784,2.784,0,0,0,2.928,1.87c1.664,0,3.414-1.04,5.2-3.091v2.741h4.553V28.713h-4.553V47.905c-1.021,1.436-1.963,2.133-2.88,2.133-.6,0-.962-.359-1.063-1.066a10.666,10.666,0,0,1-.054-1.771V28.713Zm-10.468-.305a6.222,6.222,0,0,0-5.3,2.575c-.957,1.258-1.423,3.192-1.423,5.914v8.8c0,2.728.465,4.66,1.423,5.907a6.227,6.227,0,0,0,5.3,2.574,6.244,6.244,0,0,0,5.311-2.574c.937-1.243,1.412-3.23,1.412-5.907V36.9c0-2.707-.462-4.642-1.412-5.914A6.239,6.239,0,0,0-1924.926,28.407Zm-24.207-8.283h0c.5,1.452,1.01,2.934,1.507,4.367l.023.066c.563,1.624,1.147,3.3,1.708,4.955a82.8,82.8,0,0,1,3.085,10.665V53.826h5.048V40.178l6.072-20.054h-5.1l-3.442,13.236-3.582-13.236h-5.315Zm50.358,80.649a6.419,6.419,0,0,1-5.452-2.548c-.959-1.247-1.446-3.212-1.446-5.843V83.676c0-2.718.455-4.633,1.392-5.854a6.419,6.419,0,0,1,5.393-2.55,6.249,6.249,0,0,1,5.311,2.55c.94,1.251,1.4,3.166,1.4,5.854v5.151h-9.006v4.4c0,2.321.751,3.449,2.3,3.449a1.944,1.944,0,0,0,2.014-1.806,29.7,29.7,0,0,0,.1-3.047h4.6v.655c0,1.614-.075,2.629-.1,2.9a6.526,6.526,0,0,1-1.049,2.7A6.233,6.233,0,0,1-1898.775,100.773Zm-.152-21.448c-1.5,0-2.26,1.162-2.26,3.452v2.295h4.5V82.778C-1896.686,80.487-1897.44,79.325-1898.927,79.325Zm-14.308,21.448c-1.633,0-3.154-.9-4.65-2.75v2.405h-4.5V67.073h4.5V77.967c1.457-1.789,3.021-2.7,4.65-2.7a3.574,3.574,0,0,1,3.6,2.8,19.6,19.6,0,0,1,.452,5v9.9a20.258,20.258,0,0,1-.452,5.008A3.574,3.574,0,0,1-1913.235,100.773Zm-2.408-21.448a3.255,3.255,0,0,0-2.241,1.095V95.575a3.228,3.228,0,0,0,2.241,1.1c1.3,0,1.961-1.127,1.961-3.35V82.718C-1913.683,80.467-1914.343,79.325-1915.644,79.325Zm-20.3,21.448a2.753,2.753,0,0,1-2.9-1.849,12.646,12.646,0,0,1-.4-3.694V75.574h4.5v18.3a13.392,13.392,0,0,0,.042,1.754c.113.707.458,1.05,1.055,1.05.9,0,1.859-.708,2.846-2.105v-19h4.511v24.854h-4.511V97.721C-1932.585,99.775-1934.269,100.773-1935.94,100.773Zm-9.351-.345h-5.007V71.772h-5.3v-4.7h15.7v4.7h-5.4v28.655Zm20.365-50.39c-1.463,0-2.175-1.14-2.175-3.486V35.987c0-2.342.711-3.481,2.175-3.481s2.17,1.139,2.17,3.481V46.552C-1922.756,48.9-1923.466,50.038-1924.926,50.038Z" transform="translate(2046 99.51)" fill="#c6110d" stroke="rgba(0,0,0,0)" stroke-miterlimit="10" stroke-width="1"/></g><g transform="matrix(1, 0, 0, 1, 955.78, 2007.5)" filter="url(#j)"><path d="M-1907.53,103.789h-61.149a21.188,21.188,0,0,1-8.3-1.675,21.25,21.25,0,0,1-6.777-4.569,21.249,21.249,0,0,1-4.569-6.777,21.187,21.187,0,0,1-1.676-8.3V21.32a21.189,21.189,0,0,1,1.676-8.3,21.247,21.247,0,0,1,4.569-6.777,21.246,21.246,0,0,1,6.777-4.568A21.19,21.19,0,0,1-1968.68,0h61.149a21.184,21.184,0,0,1,8.3,1.675,21.241,21.241,0,0,1,6.776,4.568,21.25,21.25,0,0,1,4.568,6.777,21.2,21.2,0,0,1,1.675,8.3V82.469a21.2,21.2,0,0,1-1.675,8.3,21.252,21.252,0,0,1-4.568,6.777,21.242,21.242,0,0,1-6.776,4.569A21.182,21.182,0,0,1-1907.53,103.789ZM-1957.4,39.724a.652.652,0,0,0-.639.636l-.558,15.5.558,8.1a.652.652,0,0,0,.639.635.663.663,0,0,0,.65-.635l.629-8.1-.629-15.5A.664.664,0,0,0-1957.4,39.724Zm15.908-4.26a.917.917,0,0,0-.521.157.973.973,0,0,0-.449.808l0,.185-.366,19.2c0,.013.23,4.859.329,6.928l.041.867a.138.138,0,0,0,0,.037.948.948,0,0,0,.225.572.957.957,0,0,0,.742.353.982.982,0,0,0,.675-.28,1,1,0,0,0,.291-.688l.039-.769.369-7.012-.407-19.394a.976.976,0,0,0-.436-.8A.916.916,0,0,0-1941.49,35.465Zm-3.222,3.162a.913.913,0,0,0-.907.9l-.4,16.295.4,7.844a.908.908,0,0,0,.907.89.9.9,0,0,0,.9-.9v.007l.454-7.841-.454-16.3A.9.9,0,0,0-1944.712,38.626Zm-6.367-.931a.781.781,0,0,0-.771.769l-.486,17.357.486,7.966a.778.778,0,0,0,.771.764.782.782,0,0,0,.773-.77l.538-7.96-.538-17.357A.782.782,0,0,0-1951.078,37.695Zm21.623-6.253a16.822,16.822,0,0,0-6.009,1.123c-.677.26-.9.528-.905,1.1v29.8a1.112,1.112,0,0,0,1.015,1.081h26.03a9.35,9.35,0,0,0,6.636-2.728,9.266,9.266,0,0,0,2.749-6.618,9.4,9.4,0,0,0-9.385-9.39,9.343,9.343,0,0,0-3.632.732,16.544,16.544,0,0,0-5.285-10.722A16.5,16.5,0,0,0-1929.455,31.441Zm-18.457,6.63a.841.841,0,0,0-.836.835l-.44,16.914.445,7.891a.841.841,0,0,0,.831.83.847.847,0,0,0,.841-.834l.5-7.887-.5-16.914A.847.847,0,0,0-1947.912,38.072Zm-12.532,4.556a.593.593,0,0,0-.579.574l-.594,12.614.594,8.151a.59.59,0,0,0,.579.569.6.6,0,0,0,.58-.573l.671-8.147-.671-12.615A.6.6,0,0,0-1960.445,42.628Zm6.219-4.306a.717.717,0,0,0-.707.7c0,.007-.181,5.879-.327,10.6-.1,3.31-.189,6.131-.191,6.2l.518,8.014a.713.713,0,0,0,.707.7.717.717,0,0,0,.709-.7l.587-8.011-.587-16.8A.719.719,0,0,0-1954.226,38.321Zm15.939-4.673a1.018,1.018,0,0,0-.648.229,1.044,1.044,0,0,0-.383.8v.1l-.423,21.049.21,3.884.213,3.786a1.036,1.036,0,0,0,1.031,1.025,1.043,1.043,0,0,0,1.035-1.03v.01l.459-7.676-.455-21.156a1.07,1.07,0,0,0-.509-.882A1.025,1.025,0,0,0-1938.287,33.648Zm-25.228,13.908a.521.521,0,0,0-.515.5l-.635,7.753.635,8.151a.522.522,0,0,0,.515.5.525.525,0,0,0,.51-.5l.719-8.151-.719-7.756A.516.516,0,0,0-1963.515,47.556Zm-3.047-.542a.46.46,0,0,0-.452.439l-.671,8.357.671,8.086a.461.461,0,0,0,.452.44.462.462,0,0,0,.448-.44l.763-8.086-.763-8.357A.462.462,0,0,0-1966.562,47.014Zm-3.027.287a.389.389,0,0,0-.382.376l-.711,8.133.711,7.836a.387.387,0,0,0,.382.373.392.392,0,0,0,.383-.373l.809-7.836-.809-8.133A.394.394,0,0,0-1969.589,47.3Zm-3,1.341a.338.338,0,0,0-.317.309l-.749,6.855.749,6.707a.332.332,0,0,0,.317.306.335.335,0,0,0,.321-.306l.853-6.707-.853-6.855A.336.336,0,0,0-1972.588,48.642Zm-2.823,2.627a.318.318,0,0,0-.307.3l-.555,4.236.555,4.17a.32.32,0,0,0,.307.3.321.321,0,0,0,.307-.3l.662-4.167-.662-4.241A.323.323,0,0,0-1975.411,51.269Z" transform="translate(2122.01 312.71)" fill="#fd9111" stroke="rgba(0,0,0,0)" stroke-miterlimit="10" stroke-width="1"/></g><g transform="matrix(1, 0, 0, 1, 955.78, 2007.5)" filter="url(#l)"><path d="M-3960.94-1856.9h-37.118a12.865,12.865,0,0,1-5.038-1.017,12.9,12.9,0,0,1-4.114-2.773,12.891,12.891,0,0,1-2.773-4.113,12.854,12.854,0,0,1-1.017-5.036v-37.118a12.86,12.86,0,0,1,1.017-5.038,12.892,12.892,0,0,1,2.773-4.113,12.906,12.906,0,0,1,4.114-2.773,12.865,12.865,0,0,1,5.038-1.017h37.118a12.858,12.858,0,0,1,5.037,1.017,12.887,12.887,0,0,1,4.113,2.773,12.883,12.883,0,0,1,2.773,4.113,12.866,12.866,0,0,1,1.017,5.038v37.118a12.86,12.86,0,0,1-1.017,5.036,12.881,12.881,0,0,1-2.773,4.113,12.884,12.884,0,0,1-4.113,2.773A12.859,12.859,0,0,1-3960.94-1856.9Zm-35.8-38.623a1.67,1.67,0,0,1,1.045.412,4.661,4.661,0,0,1,1.01,1.236,21.083,21.083,0,0,1,1.922,4.943c.582,2.106,1.179,4.276,1.706,6.189l.022.079c.524,1.9,1.066,3.872,1.6,5.808a15.262,15.262,0,0,0,2.771,4.938,5.568,5.568,0,0,0,1.594,1.233,3.875,3.875,0,0,0,1.731.411,8.034,8.034,0,0,0,3.075-.675,15.837,15.837,0,0,0,3.4-2.024,32.3,32.3,0,0,0,3.722-3.374,61.186,61.186,0,0,0,4.045-4.725,60.237,60.237,0,0,0,6.166-9.235,24.693,24.693,0,0,0,1.611-3.8,12.779,12.779,0,0,0,.627-3.251,13,13,0,0,0-.314-3.819,6,6,0,0,0-1.355-2.621,4.918,4.918,0,0,0-1.834-1.233,7.423,7.423,0,0,0-2.5-.463c-.156-.005-.315-.008-.47-.008a11.566,11.566,0,0,0-3.778.6,9.646,9.646,0,0,0-3.122,1.786,11.952,11.952,0,0,0-2.467,2.975,19.335,19.335,0,0,0-1.813,4.165,7.992,7.992,0,0,1,3.052-.639,2.815,2.815,0,0,1,2.189.778,2.37,2.37,0,0,1,.534,1.1,5.064,5.064,0,0,1,.048,1.587,8.416,8.416,0,0,1-.786,2.587,28.366,28.366,0,0,1-1.986,3.546,20.344,20.344,0,0,1-2.266,3.016,2.643,2.643,0,0,1-1.617,1,1.181,1.181,0,0,1-.815-.388,4.253,4.253,0,0,1-.779-1.165,22.21,22.21,0,0,1-1.456-4.663c-.315-1.246-.888-4.473-1.658-9.334a14.631,14.631,0,0,0-.727-2.853,7.309,7.309,0,0,0-1.132-2.039,4.406,4.406,0,0,0-1.537-1.223,4.533,4.533,0,0,0-1.942-.408c-.188,0-.385.01-.582.029a6.49,6.49,0,0,0-2.544,1.009,27.334,27.334,0,0,0-3.555,2.653c-2.167,1.938-4.134,3.672-6.01,5.3l1.939,2.475A12.7,12.7,0,0,1-3996.737-1895.526Z" transform="translate(4428.06 2127.51)" fill="#4a7db8" stroke="rgba(0,0,0,0)" stroke-miterlimit="10" stroke-width="1"/></g><g transform="matrix(1, 0, 0, 1, 955.78, 2007.5)" filter="url(#n)"><path d="M-3935.587-1825H-3991.5a19.379,19.379,0,0,1-7.589-1.532,19.43,19.43,0,0,1-6.2-4.177,19.43,19.43,0,0,1-4.178-6.2,19.368,19.368,0,0,1-1.532-7.588v-55.917a19.374,19.374,0,0,1,1.532-7.589,19.43,19.43,0,0,1,4.178-6.2,19.431,19.431,0,0,1,6.2-4.177,19.379,19.379,0,0,1,7.589-1.532h55.917a19.374,19.374,0,0,1,7.588,1.532,19.425,19.425,0,0,1,6.2,4.177,19.423,19.423,0,0,1,4.177,6.2,19.378,19.378,0,0,1,1.532,7.589v55.917a19.372,19.372,0,0,1-1.532,7.588,19.419,19.419,0,0,1-4.177,6.2,19.42,19.42,0,0,1-6.2,4.177A19.374,19.374,0,0,1-3935.587-1825Zm-16.342-49.2c2.868,0,4.727,1.178,5.684,3.6.846,2.145.846,4.9.846,7.117v19.656h12.558v-22.168a43.066,43.066,0,0,0-.566-7.6,16.935,16.935,0,0,0-2.2-6.107c-2.353-3.731-6.378-5.544-12.306-5.544a15.261,15.261,0,0,0-4.2.573,13.593,13.593,0,0,0-3.406,1.5,11.934,11.934,0,0,0-4.279,4.457h-.173v-5.53h-12.052v40.419h12.558v-19.992a24.439,24.439,0,0,1,.258-3.846,10.137,10.137,0,0,1,1.058-3.322,5.812,5.812,0,0,1,2.283-2.333A8.059,8.059,0,0,1-3951.929-1874.193Zm-40.533-10.044v40.419h12.564v-40.419Zm6.283-20.092a7.229,7.229,0,0,0-5.15,2.136,7.267,7.267,0,0,0-1.559,2.317,7.255,7.255,0,0,0-.571,2.836,7.23,7.23,0,0,0,2.13,5.147,7.235,7.235,0,0,0,5.15,2.131,7.229,7.229,0,0,0,2.831-.572,7.259,7.259,0,0,0,2.314-1.56,7.256,7.256,0,0,0,1.561-2.313,7.225,7.225,0,0,0,.573-2.833A7.292,7.292,0,0,0-3986.18-1904.328Z" transform="translate(4396.16 2232.61)" fill="#1d61a2" stroke="rgba(0,0,0,0)" stroke-miterlimit="10" stroke-width="1"/></g></g><rect width="600" height="440" fill="url(#p)"/></svg>