<svg xmlns="http://www.w3.org/2000/svg" xmlns:xlink="http://www.w3.org/1999/xlink" width="414.057" height="464.642" viewBox="0 0 414.057 464.642"><defs><linearGradient id="a" x1="-0.063" y1="0.004" x2="0.759" y2="1.046" gradientUnits="objectBoundingBox"><stop offset="0" stop-color="#1da1f2"/><stop offset="0.645" stop-color="#29339b"/><stop offset="1" stop-color="#1f271b"/></linearGradient><filter id="b" x="0" y="0" width="414.057" height="464.642" filterUnits="userSpaceOnUse"><feOffset dx="8" dy="8" input="SourceAlpha"/><feGaussianBlur stdDeviation="4" result="c"/><feFlood flood-opacity="0.161"/><feComposite operator="in" in2="c"/><feComposite in="SourceGraphic"/></filter></defs><g transform="translate(4.5 4.646)"><g transform="translate(-465.472 -1448)"><g transform="matrix(1, 0, 0, 1, 460.97, 1443.35)" filter="url(#b)"><path d="M-1836.023,428.418a408.273,408.273,0,0,1-142.9-142.9,79.761,79.761,0,0,1,0-81.1,406,406,0,0,1,30.931-45c-6.869-.665-13.609-1.493-20.72-2.54a6.38,6.38,0,0,1-5.446-6.764c.779-11.2,1.882-21.4,3.513-32.512a6.381,6.381,0,0,1,6.766-5.444c11.2.778,21.4,1.879,32.51,3.514a6.381,6.381,0,0,1,5.447,6.766c-.3,4.262-.641,8.38-1.042,12.459a408.591,408.591,0,0,1,63.661-55.7c-5.16-2.981-10.116-6.018-15.254-9.345a7.077,7.077,0,0,1-2.337-9.353c4.031-7.269,8.016-13.909,12.535-20.884a7.071,7.071,0,0,1,9.35-2.337c7.269,4.03,13.909,8.015,20.887,12.532a7.077,7.077,0,0,1,2.335,9.353q-.935,1.686-1.869,3.332.815-.487,1.633-.972a79.76,79.76,0,0,1,81.1,0,408.288,408.288,0,0,1,142.9,142.9,79.774,79.774,0,0,1,0,81.1,408.266,408.266,0,0,1-142.9,142.9,79.545,79.545,0,0,1-40.551,11.078A79.546,79.546,0,0,1-1836.023,428.418ZM-1909.2,101.962c-5.441-1.142-10.511-2.38-15.865-3.87a5.6,5.6,0,0,1-3.979-6.551c1.141-5.441,2.38-10.512,3.869-15.865a5.606,5.606,0,0,1,6.552-3.98c5.441,1.142,10.511,2.381,15.864,3.873a5.6,5.6,0,0,1,3.98,6.548c-1.142,5.441-2.38,10.512-3.869,15.865a5.608,5.608,0,0,1-5.4,4.1A5.625,5.625,0,0,1-1909.2,101.962Zm-58.855-15.079c-1.574-.9-3.1-1.823-4.639-2.784a5.621,5.621,0,0,1-1.887-7.547c.907-1.574,1.823-3.1,2.784-4.641a5.627,5.627,0,0,1,7.549-1.888c1.571.907,3.1,1.823,4.639,2.787a5.62,5.62,0,0,1,1.887,7.546c-.907,1.574-1.823,3.1-2.784,4.641a5.624,5.624,0,0,1-4.769,2.627A5.558,5.558,0,0,1-1968.057,86.882Zm57.95-37.648c-2.892-2.371-5.594-4.714-8.352-7.244a5.534,5.534,0,0,1-.54-7.574c2.371-2.894,4.714-5.6,7.244-8.352a5.535,5.535,0,0,1,7.574-.54c2.894,2.372,5.6,4.714,8.352,7.241a5.538,5.538,0,0,1,.54,7.577c-2.371,2.892-4.714,5.593-7.241,8.352a5.524,5.524,0,0,1-4.08,1.787A5.5,5.5,0,0,1-1910.107,49.235Zm-38.312-25.966c-1.554-.879-3.028-1.761-4.533-2.722a2.9,2.9,0,0,1-.964-3.853c.878-1.557,1.76-3.027,2.722-4.536a2.9,2.9,0,0,1,3.852-.961c1.558.879,3.028,1.76,4.537,2.719a2.9,2.9,0,0,1,.961,3.856c-.879,1.554-1.761,3.027-2.722,4.533a2.894,2.894,0,0,1-2.443,1.333A2.867,2.867,0,0,1-1948.419,23.269Zm108.269-10.828c-1.558-.877-3.028-1.761-4.537-2.719a2.9,2.9,0,0,1-.961-3.853c.877-1.557,1.761-3.027,2.719-4.536a2.9,2.9,0,0,1,3.853-.964c1.557.879,3.027,1.763,4.536,2.722a2.9,2.9,0,0,1,.961,3.853c-.876,1.557-1.76,3.027-2.719,4.536a2.9,2.9,0,0,1-2.443,1.332A2.854,2.854,0,0,1-1840.15,12.441Z" transform="translate(1994.5 4.65)" stroke="rgba(0,0,0,0)" stroke-miterlimit="10" stroke-width="1" fill="url(#a)"/></g></g><path d="M214.208,433.5a20.087,20.087,0,1,0-20.087-20.087A20.082,20.082,0,0,0,214.208,433.5Z" transform="translate(-84.678 -187.412)" fill="#fff"/><path d="M249.951,409.2H203.241c-9.542,0-15.9,9-15.9,20.09v30.8a7.952,7.952,0,0,0,7.866,8.036c4.35,0,7.2-3.6,7.2-8.036V439.669c0-4.44.2-9.107.941-10.234.4-.608.9-.859,1.374-.659.568.232.865,1.376.865,3.6v44.459a4.02,4.02,0,0,0,4.019,4.016h33.979a4.02,4.02,0,0,0,4.019-4.016V432.374c0-2.222.3-3.366.865-3.6.48-.2.975.051,1.379.659.738,1.128.941,5.794.941,10.234V460.09c0,4.438,2.852,8.036,7.2,8.036a7.955,7.955,0,0,0,7.872-8.036v-30.8C265.855,418.2,259.487,409.2,249.951,409.2Z" transform="translate(-97.067 -158.419)" fill="#fff"/><path d="M229.628,397.529V385.5a3.732,3.732,0,1,0-7.465,0v13.134c0,.071.006.144.009.215a3.725,3.725,0,0,0,1.082,2.872l15.7,15.7a3.732,3.732,0,1,0,5.28-5.277Z" transform="translate(-33.462 -208.531)" fill="#fff"/><path d="M290.428,414.117a40.666,40.666,0,1,0-40.667,40.666A40.664,40.664,0,0,0,290.428,414.117ZM273.263,434.7a1.2,1.2,0,0,0-1.707,0l-1.139,1.136a1.209,1.209,0,0,0,0,1.71l1.97,1.973a33.891,33.891,0,0,1-20.61,8.558v-2.809a1.209,1.209,0,0,0-1.21-1.21h-1.611a1.211,1.211,0,0,0-1.21,1.21v2.809a33.875,33.875,0,0,1-20.61-8.558l1.973-1.973a1.209,1.209,0,0,0,0-1.71l-1.142-1.136a1.2,1.2,0,0,0-1.707,0l-1.967,1.967a33.9,33.9,0,0,1-8.5-20.607h2.742a1.209,1.209,0,0,0,1.21-1.21v-1.611a1.209,1.209,0,0,0-1.21-1.21h-2.73a33.865,33.865,0,0,1,8.55-20.537l1.9,1.9a1.206,1.206,0,0,0,1.707,0l1.142-1.142a1.206,1.206,0,0,0,0-1.707l-1.9-1.894a33.87,33.87,0,0,1,20.534-8.491v2.663a1.211,1.211,0,0,0,1.21,1.21h1.611a1.209,1.209,0,0,0,1.21-1.21v-2.663a33.87,33.87,0,0,1,20.534,8.491l-1.894,1.894a1.206,1.206,0,0,0,0,1.707l1.139,1.142a1.206,1.206,0,0,0,1.707,0l1.9-1.9a33.865,33.865,0,0,1,8.55,20.537h-2.73a1.209,1.209,0,0,0-1.21,1.21v1.611a1.209,1.209,0,0,0,1.21,1.21h2.742a33.848,33.848,0,0,1-8.5,20.607Z" transform="translate(-57.33 -223.714)" fill="#fff"/><path d="M248.271,416.863h16.354a88.07,88.07,0,0,1,9.206-19.1c1.156-1.8.5-2.764-1.569-2.236l-5.995,1.538a4.605,4.605,0,0,1-3.431-.67l-3.383-2.5c-1.716-1.272-3.72-1.73-5.865.415l-4.921,4.859a2.579,2.579,0,0,1-3.021.342l-4.675-2.9c-1.817-1.128-2.462-.517-1.473,1.376A202.543,202.543,0,0,1,248.271,416.863Z" transform="translate(-2.646 -188.349)" fill="#fff"/><path d="M-1946.445,82.786a86.228,86.228,0,0,1-16.954-1.507,42.49,42.49,0,0,1-13.844-5.146,25.6,25.6,0,0,1-9.334-9.723A31.951,31.951,0,0,1-1990,51.172a50.139,50.139,0,0,1,2.638-15.661,65.926,65.926,0,0,1,6.9-14.482c5.49-8.709,12.969-16.374,20.519-21.03h26.6c7.575,4.7,15.093,12.291,20.626,20.84,4.481,6.923,9.822,17.8,9.822,30.332a31.952,31.952,0,0,1-3.423,15.237,25.6,25.6,0,0,1-9.333,9.723,42.486,42.486,0,0,1-13.843,5.146A86.206,86.206,0,0,1-1946.445,82.786Zm11.119-39.646a7.34,7.34,0,0,0-5.436,2.254,8.247,8.247,0,0,0-2.1,5.7v4.62a8.248,8.248,0,0,0,2.1,5.7,7.34,7.34,0,0,0,5.436,2.254,7.3,7.3,0,0,0,5.411-2.254,8.262,8.262,0,0,0,2.093-5.7v-4.62a8.26,8.26,0,0,0-2.093-5.7A7.3,7.3,0,0,0-1935.327,43.14ZM-1966.379,56.8h0a6.77,6.77,0,0,0,2.414,5.141,7.932,7.932,0,0,0,5.061,1.718,7.612,7.612,0,0,0,5.075-1.684,5.6,5.6,0,0,0,1.925-4.309,4.766,4.766,0,0,0-2.632-4.4,5.555,5.555,0,0,0,2.072-4.284,5.654,5.654,0,0,0-1.666-4.092,6.767,6.767,0,0,0-4.858-1.76,7.429,7.429,0,0,0-4.8,1.746,6.294,6.294,0,0,0-2.2,4.917h4.228a2.31,2.31,0,0,1,.668-1.675,2.9,2.9,0,0,1,2.1-.817,2.389,2.389,0,0,1,1.736.673,1.856,1.856,0,0,1,.532,1.371c-.03,1.37-.98,2.156-2.6,2.156h-1.511V54.9h1.735a3.218,3.218,0,0,1,2.332.833,2.137,2.137,0,0,1,.608,1.575c-.028,1.306-1.131,2.183-2.744,2.183-1.926,0-3.089-.954-3.276-2.687Zm18.9.784a3,3,0,0,0-3,3,3,3,0,0,0,3,3,3,3,0,0,0,3-3A3,3,0,0,0-1947.479,57.587Zm13.9-20.232,0,0a3.478,3.478,0,0,0,2.718,1.217,4.361,4.361,0,0,0,3.3-1.545,5.555,5.555,0,0,0,1.337-3.675,5.555,5.555,0,0,0-1.337-3.675,4.36,4.36,0,0,0-3.3-1.545,3.476,3.476,0,0,0-2.72,1.22v-6h-3.02v15h3.02v-1Zm-10.239-9.22a5.359,5.359,0,0,0-3.783,1.475,5.144,5.144,0,0,0-1.517,3.725,5.228,5.228,0,0,0,1.487,3.76,5.347,5.347,0,0,0,3.813,1.48,5.31,5.31,0,0,0,5.24-3.54h-3.16a2.113,2.113,0,0,1-1.921.941,2.27,2.27,0,0,1-2.52-1.921h7.7a5.865,5.865,0,0,0-1.486-4.385A5.29,5.29,0,0,0-1943.816,28.135Zm-14.7,3.261v0l3.019,6.958h3.02l3.3-14.2h-3.4l-1.94,9-4-9.239-3.98,9.239-1.94-9h-3.4l3.28,14.2h3.021l3.018-6.958Zm23.19,28.1a3.1,3.1,0,0,1-2.387-1,4.086,4.086,0,0,1-.917-2.783v-4.62a4.086,4.086,0,0,1,.917-2.782,3.1,3.1,0,0,1,2.387-1c1.99,0,3.276,1.484,3.276,3.78v4.62C-1932.051,58.007-1933.337,59.491-1935.327,59.491Zm3.79-23.656a2.283,2.283,0,0,1-2.28-2.48,2.282,2.282,0,0,1,2.28-2.479,2.282,2.282,0,0,1,2.28,2.479A2.283,2.283,0,0,1-1931.537,35.835Zm-10.28-3.7h-4.28a2.133,2.133,0,0,1,2.2-1.6,2.083,2.083,0,0,1,2.08,1.6Z" transform="translate(2200.405 239.644)" fill="#fff" stroke="rgba(0,0,0,0)" stroke-miterlimit="10" stroke-width="1"/><path d="M244.015,402.05c-2.405,0-3.386,1.569-3.386,3.5s.981,3.51,3.386,3.51H263.37c2.405,0,3.389-1.571,3.389-3.51s-.984-3.5-3.389-3.5Z" transform="translate(0.265 -171.478)" fill="#fff"/></g></svg>