<svg xmlns="http://www.w3.org/2000/svg" width="560" height="106.084" viewBox="0 0 560 106.084"><g transform="translate(0)"><g transform="translate(0)"><path d="M170.85,20.2H200.9q10.866,0,18.385,3.391a24.771,24.771,0,0,1,11.24,9.446,25.7,25.7,0,0,1,3.743,13.827,25.585,25.585,0,0,1-3.886,13.849,26.356,26.356,0,0,1-11.879,9.82q-7.971,3.633-19.761,3.622h-27.9Zm27.589,40.227q7.321,0,11.251-3.655a12.991,12.991,0,0,0,3.93-9.985,12.661,12.661,0,0,0-3.5-9.358q-3.523-3.5-10.6-3.512h-9.4v26.51Z" transform="translate(17.24 2.038)" fill="#fff"/><path d="M270.371,73.44a40.733,40.733,0,0,1-11.251-4.7V55.946a30.572,30.572,0,0,0,10.128,4.822,43.277,43.277,0,0,0,12.3,1.883,9.589,9.589,0,0,0,4.205-.727c.947-.484,1.42-1.1,1.42-1.739a2.609,2.609,0,0,0-.771-1.927,6.771,6.771,0,0,0-3.005-1.31l-9.248-2.081q-7.949-1.85-11.284-5.119a11.438,11.438,0,0,1-3.3-8.6,11.416,11.416,0,0,1,2.928-7.783,18.859,18.859,0,0,1,8.323-5.119,39.633,39.633,0,0,1,12.638-1.817,47.637,47.637,0,0,1,11.868,1.387,33.3,33.3,0,0,1,8.939,3.545v12.11a33.026,33.026,0,0,0-8.367-3.424,37.431,37.431,0,0,0-9.743-1.277q-7.244,0-7.244,2.466a1.86,1.86,0,0,0,1.1,1.739,17.767,17.767,0,0,0,4.117,1.189l7.706,1.387q7.508,1.321,11.2,4.624t3.7,9.666a12.782,12.782,0,0,1-6.132,11.141q-6.088,4.084-17.383,4.073A51.093,51.093,0,0,1,270.371,73.44Z" transform="translate(26.148 2.666)" fill="#fff"/><path d="M320.118,71.824a23.119,23.119,0,0,1-9.985-8.807,23.768,23.768,0,0,1-3.3-12.484A22.7,22.7,0,0,1,310.3,38.125a23.3,23.3,0,0,1,10.172-8.587A37.706,37.706,0,0,1,336.5,26.411q11.56,0,19.189,4.855V45.391a24.043,24.043,0,0,0-6.275-3.005,24.936,24.936,0,0,0-7.706-1.156q-7.167,0-11.218,2.62a7.872,7.872,0,0,0-.11,13.684q3.93,2.653,11.405,2.653a26.323,26.323,0,0,0,7.6-1.1,28.3,28.3,0,0,0,6.429-2.741V70a37.431,37.431,0,0,1-19.651,5.086,36.253,36.253,0,0,1-16.04-3.259Z" transform="translate(30.962 2.664)" fill="#fff"/><path d="M369.895,71.818a23.966,23.966,0,0,1-10.183-8.807,23.273,23.273,0,0,1-3.5-12.561,22.316,22.316,0,0,1,3.5-12.385,23.582,23.582,0,0,1,10.139-8.521,42.022,42.022,0,0,1,31.6,0,23.394,23.394,0,0,1,10.1,8.477,22.469,22.469,0,0,1,3.468,12.407,23.438,23.438,0,0,1-3.468,12.561A23.681,23.681,0,0,1,401.414,71.8a39.985,39.985,0,0,1-31.519,0Zm23.416-13.673a10.041,10.041,0,0,0,2.818-7.442,9.765,9.765,0,0,0-2.818-7.354,10.492,10.492,0,0,0-7.706-2.741,10.646,10.646,0,0,0-7.706,2.741,9.8,9.8,0,0,0-2.807,7.354,10.074,10.074,0,0,0,2.807,7.442,10.492,10.492,0,0,0,7.706,2.807,10.349,10.349,0,0,0,7.706-2.807Z" transform="translate(35.945 2.67)" fill="#fff"/><path d="M455.291,29.17V45.838a13.728,13.728,0,0,0-7.629-1.927c-4.106,0-7.277,1.255-9.479,3.743s-3.3,6.352-3.3,11.593v14.18H416V28.344h18.5V42.656q1.541-7.86,4.976-11.593a11.428,11.428,0,0,1,8.807-3.743,12.892,12.892,0,0,1,7.013,1.85Z" transform="translate(41.979 2.756)" fill="#fff"/><path d="M514.11,18.8V74.286H495.229V64.158a17.868,17.868,0,0,1-7.288,8.675,22.91,22.91,0,0,1-12,2.994,19.938,19.938,0,0,1-11.174-3.116,20.477,20.477,0,0,1-7.42-8.554,28.348,28.348,0,0,1-2.576-12.3,27.379,27.379,0,0,1,2.73-12.716,21.391,21.391,0,0,1,7.938-8.807,21.853,21.853,0,0,1,11.681-3.16q13.475,0,18.11,11.714V18.8ZM492.455,58.653a9.721,9.721,0,0,0,2.9-7.288,9.27,9.27,0,0,0-2.9-7.024,12.11,12.11,0,0,0-15.292,0,9.413,9.413,0,0,0-2.851,7.123,9.545,9.545,0,0,0,2.884,7.189,10.371,10.371,0,0,0,7.552,2.763,10.525,10.525,0,0,0,7.706-2.763Z" transform="translate(45.89 1.897)" fill="#fff"/><path d="M118.568,8.884A115.76,115.76,0,0,0,89.691,0a79.332,79.332,0,0,0-3.7,7.519,107.536,107.536,0,0,0-32.048,0A79.669,79.669,0,0,0,50.246,0a116.575,116.575,0,0,0-28.9,8.906C3.072,35.945-1.883,62.312.594,88.3h0a116.4,116.4,0,0,0,35.416,17.78A85.541,85.541,0,0,0,43.6,93.853a75.323,75.323,0,0,1-11.945-5.7c1-.727,1.982-1.475,2.928-2.2a83.2,83.2,0,0,0,70.811,0c.958.782,1.938,1.53,2.928,2.2a75.614,75.614,0,0,1-11.967,5.714,84.769,84.769,0,0,0,7.585,12.22,115.871,115.871,0,0,0,35.438-17.769h0C142.282,58.172,134.41,32.047,118.568,8.884ZM46.734,72.319c-6.9,0-12.605-6.264-12.605-13.971s5.5-14.026,12.583-14.026,12.738,6.319,12.616,14.026S53.768,72.319,46.734,72.319Zm46.5,0c-6.914,0-12.594-6.264-12.594-13.971s5.5-14.026,12.594-14.026,12.7,6.319,12.583,14.026S100.271,72.319,93.236,72.319Z" transform="translate(0)" fill="#fff"/><ellipse cx="9.413" cy="8.455" rx="9.413" ry="8.455" transform="translate(258.02 18.991)" fill="#fff"/><path d="M234.36,37.9a24.308,24.308,0,0,0,18.837,0V72.6H234.36Z" transform="translate(23.649 3.824)" fill="#fff"/></g></g></svg>